<svg width="24" height="25" viewBox="0 0 24 25" fill="none" xmlns="http://www.w3.org/2000/svg">
<g clip-path="url(#clip0_3140_8092)">
<path d="M16.4988 0.5C15.2193 0.5885 13.7238 1.4075 12.8523 2.474C12.0573 3.4415 11.4033 4.8785 11.6583 6.275C13.0563 6.3185 14.5008 5.48 15.3378 4.3955C16.1208 3.386 16.7133 1.958 16.4988 0.5Z" fill="black"/>
<path d="M21.5553 8.55216C20.3268 7.01167 18.6003 6.11768 16.9698 6.11768C14.8174 6.11768 13.9069 7.14817 12.4114 7.14817C10.8694 7.14817 9.69789 6.12068 7.8364 6.12068C6.00791 6.12068 4.06092 7.23817 2.82643 9.14916C1.09094 11.8401 1.38794 16.8996 4.20042 21.2091C5.20692 22.7511 6.55091 24.4851 8.3089 24.5001C9.87339 24.5151 10.3144 23.4966 12.4339 23.4861C14.5534 23.4741 14.9554 24.5136 16.5169 24.4971C18.2763 24.4836 19.6938 22.5621 20.7003 21.0201C21.4218 19.9146 21.6903 19.3581 22.2498 18.1101C18.1803 16.5606 17.5278 10.7736 21.5553 8.55216Z" fill="black"/>
</g>
<defs>
<clipPath id="clip0_3140_8092">
<rect width="24" height="24" fill="white" transform="translate(0 0.5)"/>
</clipPath>
</defs>
</svg>
