<svg width="32" height="40" viewBox="0 0 32 40" fill="none" xmlns="http://www.w3.org/2000/svg">
<path d="M29.3612 34.0294H7.98327C6.87639 34.0294 5.97913 33.1321 5.97913 32.0252V2.63061C5.97913 1.52373 6.87639 0.626465 7.98327 0.626465H29.3612C30.468 0.626465 31.3653 1.52373 31.3653 2.63061V32.0252C31.3653 33.1321 30.468 34.0294 29.3612 34.0294Z" fill="#E4EAF8"/>
<path d="M31.3653 20.6682H5.97913V2.63061C5.97913 1.52373 6.87639 0.626465 7.98327 0.626465H29.3612C30.468 0.626465 31.3653 1.52373 31.3653 2.63061V20.6682Z" fill="#FEA82F"/>
<path d="M26.6889 36.7017H5.31109C4.20421 36.7017 3.30695 35.8045 3.30695 34.6976V5.30297C3.30695 4.19609 4.20421 3.29883 5.31109 3.29883H26.689C27.7959 3.29883 28.6931 4.19609 28.6931 5.30297V34.6976C28.6931 35.8044 27.7959 36.7017 26.6889 36.7017Z" fill="white"/>
<path d="M28.6931 23.3405H3.30685V5.30297C3.30685 4.19609 4.20412 3.29883 5.31099 3.29883H26.6889C27.7958 3.29883 28.693 4.19609 28.693 5.30297L28.6931 23.3405Z" fill="#ABFFDB"/>
<path d="M24.0167 39.3736H2.63881C1.53194 39.3736 0.634674 38.4763 0.634674 37.3695V7.97484C0.634674 6.86797 1.53194 5.9707 2.63881 5.9707H24.0167C25.1236 5.9707 26.0208 6.86797 26.0208 7.97484V37.3695C26.0208 38.4763 25.1236 39.3736 24.0167 39.3736Z" fill="white"/>
<path d="M26.0208 26.0124H0.634674V7.97484C0.634674 6.86797 1.53194 5.9707 2.63881 5.9707H24.0167C25.1236 5.9707 26.0208 6.86797 26.0208 7.97484V26.0124Z" fill="#FFC850"/>
<path d="M29.3612 0H7.98327C6.5328 0 5.3528 1.18008 5.3528 2.63047V2.67219H5.31108C3.86061 2.67219 2.68061 3.85227 2.68061 5.30266V5.34437H2.63889C1.18842 5.34437 0.00842285 6.52445 0.00842285 7.97484V37.3695C0.00842285 38.82 1.1885 40 2.63889 40H24.0168C25.4673 40 26.6473 38.8199 26.6473 37.3695V37.3278H26.689C28.1394 37.3278 29.3194 36.1477 29.3194 34.6973V34.6556H29.3612C30.8116 34.6556 31.9916 33.4755 31.9916 32.0252V2.63047C31.9916 1.18008 30.8116 0 29.3612 0ZM25.3946 37.3695C25.3946 38.1293 24.7765 38.7474 24.0167 38.7474H2.63881C1.87905 38.7474 1.26092 38.1293 1.26092 37.3695V7.97492C1.26092 7.21516 1.87905 6.59703 2.63881 6.59703H24.0167C24.7765 6.59703 25.3946 7.21516 25.3946 7.97492V37.3695ZM28.0668 34.6973C28.0668 35.457 27.4487 36.0752 26.6889 36.0752H26.6472V7.97492C26.6472 6.52445 25.4671 5.34445 24.0167 5.34445H3.93319V5.30273C3.93319 4.54297 4.55131 3.92484 5.31108 3.92484H26.689C27.4487 3.92484 28.0669 4.54297 28.0669 5.30273V34.6973H28.0668ZM30.739 20.0417V32.025C30.739 32.7848 30.1209 33.4029 29.3612 33.4029H29.3194V5.30273C29.3194 3.85227 28.1394 2.67227 26.689 2.67227H6.60538V2.63047C6.60538 1.8707 7.2235 1.25258 7.98327 1.25258H29.3612C30.1209 1.25258 30.739 1.8707 30.739 2.63047V20.0417Z" fill="#474D54"/>
<path d="M3.80733 22.6079C3.96738 22.6523 4.13853 22.6313 4.28313 22.5496C4.42773 22.4679 4.53395 22.3321 4.57843 22.172L5.37882 19.2904H12.5919L13.3923 22.1719C13.4368 22.332 13.543 22.4678 13.6876 22.5495C13.8322 22.6313 14.0034 22.6523 14.1634 22.6079C14.3235 22.5634 14.4593 22.4572 14.5411 22.3126C14.6228 22.168 14.6437 21.9968 14.5993 21.8368L11.5308 10.7903C11.2958 9.94404 10.5183 9.35303 9.64007 9.35303H8.33092C7.45264 9.35303 6.67514 9.94404 6.44007 10.7902L3.37139 21.8368C3.32696 21.9968 3.34793 22.168 3.42968 22.3126C3.51144 22.4572 3.64728 22.5634 3.80733 22.6079ZM7.64694 11.1254C7.68878 10.9761 7.77821 10.8446 7.90166 10.7508C8.0251 10.6569 8.1758 10.606 8.33085 10.6056H9.63999C9.79504 10.6059 9.94574 10.6569 10.0692 10.7507C10.1926 10.8446 10.282 10.9761 10.3238 11.1254L12.2439 18.0378H5.72671L7.64694 11.1254ZM19.0062 22.6307C19.9405 22.6307 20.7933 22.2759 21.4376 21.6943C21.5935 22.2342 22.0912 22.6307 22.6805 22.6307C22.8466 22.6307 23.006 22.5647 23.1234 22.4472C23.2409 22.3298 23.3069 22.1705 23.3069 22.0044C23.3069 21.8382 23.2409 21.6789 23.1234 21.5615C23.006 21.444 22.8466 21.378 22.6805 21.378C22.6695 21.378 22.6589 21.3736 22.651 21.3658C22.6432 21.358 22.6388 21.3474 22.6388 21.3363V15.3238C22.6388 15.1577 22.5728 14.9984 22.4554 14.8809C22.3379 14.7635 22.1786 14.6975 22.0125 14.6975C21.8464 14.6975 21.6871 14.7635 21.5696 14.8809C21.4521 14.9984 21.3862 15.1577 21.3862 15.3238V15.5893C20.7482 15.0345 19.916 14.6975 19.0062 14.6975C17.0033 14.6975 15.3737 16.327 15.3737 18.3301V18.9981C15.3737 21.0012 17.0033 22.6307 19.0062 22.6307ZM16.6263 18.3301C16.6263 17.0177 17.694 15.9501 19.0062 15.9501C20.3186 15.9501 21.3862 17.0178 21.3862 18.3301V18.9981C21.3862 20.3104 20.3185 21.378 19.0062 21.378C17.6939 21.378 16.6263 20.3104 16.6263 18.9981V18.3301Z" fill="white"/>
<path d="M22.0125 29.3945H4.64296C4.47685 29.3945 4.31754 29.4605 4.20008 29.578C4.08262 29.6954 4.01663 29.8547 4.01663 30.0209C4.01663 30.187 4.08262 30.3463 4.20008 30.4637C4.31754 30.5812 4.47685 30.6472 4.64296 30.6472H22.0125C22.1786 30.6472 22.3379 30.5812 22.4554 30.4637C22.5728 30.3463 22.6388 30.187 22.6388 30.0209C22.6388 29.8547 22.5728 29.6954 22.4554 29.578C22.3379 29.4605 22.1786 29.3945 22.0125 29.3945ZM15.3319 34.739H4.64296C4.47685 34.739 4.31754 34.805 4.20008 34.9224C4.08262 35.0399 4.01663 35.1992 4.01663 35.3653C4.01663 35.5314 4.08262 35.6907 4.20008 35.8082C4.31754 35.9257 4.47685 35.9916 4.64296 35.9916H15.3319C15.498 35.9917 15.6573 35.9257 15.7748 35.8082C15.8922 35.6908 15.9582 35.5315 15.9582 35.3654C15.9582 35.1992 15.8923 35.0399 15.7748 34.9225C15.6574 34.805 15.4981 34.739 15.3319 34.739ZM4.64296 33.3194H8.65109C8.8172 33.3194 8.97651 33.2534 9.09397 33.1359C9.21143 33.0185 9.27741 32.8592 9.27741 32.693C9.27741 32.5269 9.21143 32.3676 9.09397 32.2502C8.97651 32.1327 8.8172 32.0667 8.65109 32.0667H4.64296C4.47685 32.0667 4.31754 32.1327 4.20008 32.2502C4.08262 32.3676 4.01663 32.5269 4.01663 32.693C4.01663 32.8592 4.08262 33.0185 4.20008 33.1359C4.31754 33.2534 4.47685 33.3194 4.64296 33.3194ZM22.0125 32.0667H11.3236C11.1575 32.0667 10.9982 32.1327 10.8807 32.2502C10.7632 32.3676 10.6973 32.5269 10.6973 32.693C10.6973 32.8592 10.7632 33.0185 10.8807 33.1359C10.9982 33.2534 11.1575 33.3194 11.3236 33.3194H22.0125C22.1786 33.3194 22.3379 33.2534 22.4554 33.1359C22.5728 33.0185 22.6388 32.8592 22.6388 32.693C22.6388 32.5269 22.5728 32.3676 22.4554 32.2502C22.3379 32.1327 22.1786 32.0667 22.0125 32.0667Z" fill="#ABB0B7"/>
</svg>
