<svg width="28" height="34" viewBox="0 0 28 34" fill="none" xmlns="http://www.w3.org/2000/svg">
<path d="M4.39041 10.4438C-2.79599 20.489 1.65681 27.1174 5.36921 30.4562C6.11324 31.1217 6.95711 31.6664 7.87001 32.0702C14.722 35.119 20.0576 33.2154 23.534 30.2694C26.7148 27.5734 27.1796 23.1078 26.9132 18.9466C26.6892 15.4466 26.7228 12.7586 27.4404 11.4982C24.7784 11.9526 22.8684 13.419 22.246 14.907C21.1908 5.65462 17.5388 1.51502 5.36441 0.541016C8.61081 5.16742 11.4772 13.205 6.51881 14.907C4.39041 15.6374 4.20081 13.2566 4.39041 10.443V10.4438Z" fill="url(#paint0_linear_3215_11602)"/>
<path d="M7.01042 18.9101C3.07202 24.9101 6.33762 29.2129 8.73642 31.3973C9.47282 32.0681 10.318 32.6213 11.25 32.9733C13.76 33.9205 15.9808 33.7273 17.786 33.0005C21.6536 31.4437 20.986 26.5825 21.8872 22.5117C22.028 21.8753 22.3152 21.2677 22.8256 20.6581C20.7716 20.6581 19.7 20.9705 18.8964 21.8189C19.2984 17.0857 18.0676 13.8297 11.9912 10.6421C13.286 14.5273 12.2876 21.9977 10.3672 22.8981C9.20042 23.4461 7.46522 22.8981 7.01042 18.9101Z" fill="url(#paint1_linear_3215_11602)"/>
<defs>
<linearGradient id="paint0_linear_3215_11602" x1="0.559205" y1="0.541416" x2="32.9384" y2="26.855" gradientUnits="userSpaceOnUse">
<stop stop-color="#FD7C42"/>
<stop offset="0.495" stop-color="#FF4F00"/>
<stop offset="1" stop-color="#C6450C"/>
</linearGradient>
<linearGradient id="paint1_linear_3215_11602" x1="5.17442" y1="10.6421" x2="27.3728" y2="27.6981" gradientUnits="userSpaceOnUse">
<stop stop-color="#F2C72F"/>
<stop offset="0.552" stop-color="#FB9E14"/>
<stop offset="1" stop-color="#E4680D"/>
</linearGradient>
</defs>
</svg>
