<svg width="228" height="223" viewBox="0 0 228 223" fill="none" xmlns="http://www.w3.org/2000/svg">
<path d="M64.5743 219.732H16.3413V204.757C16.3413 200.4 20.3544 196.868 25.3047 196.868H55.6114C60.5617 196.868 64.5743 200.4 64.5743 204.757V219.732Z" fill="#A7C7D3"/>
<path d="M112.809 219.732H64.574V185.172C64.574 180.815 68.5871 177.283 73.5369 177.283H103.846C108.796 177.283 112.809 180.815 112.809 185.172V219.732Z" fill="#89B4C9"/>
<path d="M161.044 219.732H112.809V164.133C112.809 159.776 116.821 156.244 121.772 156.244H152.08C157.028 156.244 161.043 159.776 161.043 164.133L161.044 219.732Z" fill="#6C96B3"/>
<path d="M209.276 219.732H161.043V132.221C161.043 127.863 165.056 124.332 170.006 124.332H200.313C205.263 124.332 209.276 127.864 209.276 132.221V219.732Z" fill="#618AAA"/>
<path d="M174.135 34.9442H222.65C224.151 34.9442 224.855 33.3061 223.726 32.4311L211.123 22.6661C210.95 22.5313 210.811 22.3656 210.715 22.1799C210.62 21.9942 210.571 21.7927 210.571 21.589C210.571 21.3852 210.62 21.1838 210.715 20.9981C210.811 20.8124 210.95 20.6466 211.123 20.5119L223.726 10.7443C224.855 9.8697 224.152 8.23291 222.65 8.23291H174.135V34.9442Z" fill="#FDB659"/>
<path d="M177.999 47.4443L125.444 72.5645C120.754 74.8054 119.473 78.7458 117.836 83.8208L107.385 116.349L132.996 107.113L142.937 80.6631L169.386 66.52C176.775 62.5674 180.291 54.782 177.999 47.4443Z" fill="#83D9FF"/>
<path d="M177.999 47.4443L171.935 50.3416C170.913 54.9353 167.76 59.083 162.992 61.6336L138.893 74.5197C137.376 75.3316 136.237 76.592 135.679 78.0755L132.238 87.2321C130.47 91.9348 127.567 96.2451 123.728 99.8671C119.889 103.489 115.205 106.337 109.998 108.215L107.385 116.351L132.996 107.113L142.937 80.6649L169.386 66.5213C176.775 62.5674 180.291 54.782 177.999 47.4443Z" fill="#5FC9ED"/>
<path d="M132.996 107.112L148.133 122.855C150.64 125.778 152.822 127.833 152.37 131.049L148.829 156.23H139.593L137.179 134.581C137.106 133.938 136.84 133.324 136.407 132.802C135.974 132.281 135.39 131.871 134.716 131.615L107.385 116.351L132.996 107.112Z" fill="#38627C"/>
<path d="M107.385 116.351L105.908 140.219C105.813 142.197 106.128 143.537 105.248 145.008L87.8193 177.283H97.6171L123.822 146.645C125.355 145.075 125.531 142.944 126.047 140.983L132.996 107.112L107.385 116.351Z" fill="#4F7693"/>
<path d="M131.118 52.5957L135.417 59.9795C137.437 63.4504 135.877 67.7053 131.934 69.4832L128.611 70.9806C124.667 72.7585 119.835 71.3857 117.815 67.9143L113.516 60.5309C111.496 57.0596 113.056 52.8048 117 51.0273L120.322 49.5299C124.266 47.752 129.098 49.1248 131.118 52.5957Z" fill="#FECBAA"/>
<path d="M226.181 29.9778L215.355 21.5866L226.181 13.1975C227.865 11.8909 228.441 9.85425 227.651 8.00666C226.856 6.15733 224.894 4.96306 222.65 4.96306H177.848V3.26834C177.848 2.83914 177.752 2.41414 177.565 2.0176C177.379 1.62107 177.105 1.26077 176.761 0.957276C176.416 0.653782 176.006 0.413038 175.556 0.248788C175.105 0.0845382 174.623 0 174.135 0C173.647 0 173.164 0.0845382 172.714 0.248788C172.263 0.413038 171.854 0.653782 171.509 0.957276C171.164 1.26077 170.891 1.62107 170.704 2.0176C170.518 2.41414 170.422 2.83914 170.422 3.26834V47.347L139.926 61.9226C139.754 60.7249 139.346 59.5629 138.72 58.4892L134.423 51.1053C131.473 46.0356 124.387 44.026 118.63 46.6205L115.308 48.1179C112.517 49.3766 110.45 51.5134 109.488 54.1407C109.01 55.4308 108.829 56.7916 108.953 58.1441C109.077 59.4966 109.506 60.814 110.213 62.0197L114.509 69.4053C115.475 71.0666 116.938 72.4648 118.739 73.4493C116.458 76.1528 115.375 79.4773 114.262 82.9312L113.462 85.4251C113.329 85.8381 113.29 86.2702 113.347 86.6965C113.404 87.1228 113.556 87.5351 113.794 87.9097C114.032 88.2844 114.351 88.6141 114.734 88.8799C115.117 89.1458 115.556 89.3426 116.025 89.4592C116.362 89.5441 116.702 89.5833 117.036 89.5833C117.845 89.5826 118.631 89.3498 119.275 88.9202C119.92 88.4907 120.388 87.8878 120.608 87.203L121.408 84.7139C123.036 79.6624 124.035 76.9572 127.217 75.4367L132.921 72.7093L133.624 72.3927C133.858 72.2873 134.077 72.1679 134.299 72.0508L174.953 52.6197C174.696 57.0924 171.961 61.3185 167.457 63.7262L141.02 77.864C140.989 77.8797 140.958 77.8945 140.929 77.9119L132.7 82.3114C131.859 82.7621 131.255 83.4883 131.022 84.3306C130.788 85.1728 130.944 86.0622 131.456 86.8032C132.459 88.2579 134.546 88.7749 136.249 88.0449L130.006 104.657L125.442 106.304L113.033 110.78L116.609 99.6536C116.876 98.8192 116.756 97.9255 116.276 97.1687C115.795 96.412 114.993 95.8541 114.045 95.6178C112.07 95.1243 110.019 96.137 109.461 97.8739L103.811 115.461C103.735 115.693 103.69 115.931 103.677 116.172L102.198 140.079C102.154 140.991 102.375 142.715 101.895 143.605L85.4726 174.014H73.5387C66.5472 174.014 60.8611 179.02 60.8611 185.172V194.606C59.2137 193.942 57.4228 193.599 55.6109 193.601H25.3043C18.3148 193.601 12.6282 198.604 12.6282 204.758V216.463H3.71323C2.72842 216.463 1.78395 216.808 1.08758 217.421C0.391214 218.034 0 218.865 0 219.732C0 220.598 0.391214 221.43 1.08758 222.043C1.78395 222.656 2.72842 223 3.71323 223H222.645C223.63 223 224.575 222.656 225.271 222.043C225.967 221.43 226.359 220.598 226.359 219.732C226.359 218.865 225.967 218.034 225.271 217.421C224.575 216.808 223.63 216.463 222.645 216.463H212.989V132.221C212.989 126.069 207.302 121.063 200.313 121.063H177.848V64.0459C181.965 59.1342 183.491 52.6959 181.579 46.5778C181.431 46.1029 181.163 45.6637 180.795 45.293C180.426 44.9223 179.967 44.6299 179.452 44.4375C178.946 44.2481 178.398 44.1598 177.848 44.1793V38.2123H222.648C224.894 38.2123 226.856 37.018 227.649 35.1704C228.441 33.3228 227.865 31.2845 226.181 29.9778ZM116.556 56.1481C116.728 55.6734 117.006 55.2334 117.372 54.8538C117.739 54.4741 118.188 54.1623 118.692 53.9364L122.015 52.439C122.62 52.1651 123.291 52.0222 123.971 52.0222C125.537 52.0222 127.05 52.7757 127.812 54.0845L132.111 61.47C133.114 63.1948 132.464 65.2863 130.681 66.3425L129.471 66.9196L126.917 68.0712C124.804 69.0242 122.203 68.2855 121.12 66.4244L116.821 59.0406C116.562 58.5978 116.405 58.1143 116.36 57.6179C116.315 57.1215 116.381 56.6221 116.557 56.1485L116.556 56.1481ZM109.096 175.02C107.808 174.502 106.429 174.179 105.019 174.064L109.096 169.298V175.02ZM126.726 148.685C128.512 146.802 129.005 144.602 129.403 142.829C129.504 142.406 131.336 133.597 131.336 133.597C131.336 133.597 133.07 134.548 133.252 134.616C133.315 134.642 133.37 134.682 133.41 134.732C133.45 134.782 133.474 134.841 133.48 134.902L135.5 152.976H123.055L126.726 148.685ZM148.685 130.645L145.549 152.96H142.961L140.872 134.262C140.741 133.088 140.27 131.964 139.504 130.996C138.738 130.029 137.703 129.251 136.497 128.736L132.763 126.652L135.25 114.517C135.25 114.517 145.731 125.475 145.974 125.754C148.143 128.236 148.886 129.23 148.685 130.645ZM108.576 146.463C109.326 144.476 109.674 142.453 109.616 140.395L110.965 118.591L128.139 112.397L125.018 127.617C125.008 127.658 124.998 127.7 124.992 127.741L122.41 140.326C122.073 141.629 121.78 143.606 120.856 144.68L95.7642 174.014H93.6957L108.576 146.463ZM20.0551 204.756C20.0551 202.21 22.409 200.137 25.3048 200.137H55.6114C58.5066 200.137 60.863 202.21 60.863 204.756V216.464H20.0541L20.0551 204.756ZM68.2875 204.756V185.172C68.2875 182.624 70.6439 180.551 73.5392 180.551H103.846C106.742 180.551 109.096 182.623 109.096 185.172V216.463H68.2895V204.756H68.2875ZM205.563 132.221V216.463H164.757V196.867C164.757 196.438 164.661 196.013 164.474 195.616C164.288 195.22 164.014 194.86 163.669 194.556C163.324 194.253 162.915 194.012 162.465 193.848C162.014 193.683 161.531 193.599 161.044 193.599C160.556 193.599 160.073 193.683 159.622 193.847C159.171 194.011 158.762 194.252 158.417 194.555C158.072 194.859 157.798 195.219 157.611 195.616C157.424 196.013 157.328 196.438 157.328 196.867V216.463H116.522V164.131C116.522 161.584 118.876 159.512 121.772 159.512H152.079C154.974 159.512 157.329 161.584 157.329 164.131V180.515C157.329 181.382 157.72 182.213 158.416 182.826C159.113 183.439 160.057 183.784 161.042 183.784C161.529 183.784 162.012 183.7 162.463 183.535C162.913 183.371 163.323 183.13 163.668 182.827C164.013 182.523 164.286 182.163 164.473 181.766C164.659 181.37 164.755 180.945 164.755 180.515V132.221C164.755 129.672 167.111 127.6 170.007 127.6H174.097C174.109 127.6 174.122 127.602 174.135 127.602C174.147 127.602 174.161 127.6 174.172 127.6H200.312C203.207 127.6 205.563 129.674 205.563 132.221V132.221ZM170.007 121.063C163.017 121.063 157.33 126.069 157.33 132.221V153.981C155.972 153.435 154.515 153.106 153.026 153.01L156.055 131.45C156.65 127.248 154.214 124.463 151.86 121.768C151.611 121.482 137.178 106.398 137.178 106.398L146.032 82.8341L170.423 69.7912V121.063H170.007ZM177.848 31.6743V11.5011H217.131L208.671 18.0582C208.101 18.4997 207.645 19.0428 207.332 19.6514C207.02 20.2601 206.858 20.9204 206.858 21.5883C206.858 22.9394 207.519 24.2256 208.671 25.1189L217.131 31.676H177.848V31.6743Z" fill="black"/>
</svg>
