<svg width="40" height="38" viewBox="0 0 40 38" fill="none" xmlns="http://www.w3.org/2000/svg">
<path d="M36.96 19.8043H32.4583V16.9532C32.4583 10.0837 26.8695 4.49496 20 4.49496C13.1305 4.49496 7.54181 10.0837 7.54181 16.9532V19.8043H3.04001V16.9532C3.04001 7.60137 10.6482 -0.00683594 19.9999 -0.00683594C29.3517 -0.00683594 36.9599 7.60137 36.9599 16.9532V19.8043H36.96Z" fill="#407093"/>
<path d="M20 -0.00683594C19.6075 -0.00683594 19.2183 0.00769525 18.8323 0.0341015C27.6415 0.636055 34.6248 7.99387 34.6248 16.9531V19.8042H36.9601V16.9531C36.96 7.60137 29.3518 -0.00683594 20 -0.00683594Z" fill="#2B4D66"/>
<path d="M20 38.0074C23.8009 38.0074 26.8821 34.9262 26.8821 31.1253C26.8821 27.3244 23.8009 24.2432 20 24.2432C16.1991 24.2432 13.1179 27.3244 13.1179 31.1253C13.1179 34.9262 16.1991 38.0074 20 38.0074Z" fill="#DD5790"/>
<path d="M23.8046 25.3906C24.5292 26.4805 24.9523 27.7883 24.9523 29.1952C24.9523 32.9961 21.871 36.0773 18.0701 36.0773C16.6632 36.0773 15.3555 35.6543 14.2655 34.9297C15.4984 36.7843 17.6061 38.0072 20.0001 38.0072C23.8009 38.0072 26.8822 34.9259 26.8822 31.1251C26.8821 28.7312 25.6592 26.6236 23.8046 25.3906Z" fill="#DA387D"/>
<path d="M5.24375 33.3108H2.57812C1.1543 33.3108 0 32.1565 0 30.7327V20.9243C0 19.5005 1.1543 18.3462 2.57812 18.3462H5.24375V33.3108ZM34.7562 18.3462H37.4219C38.8457 18.3462 40 19.5005 40 20.9243V30.7327C40 32.1565 38.8457 33.3108 37.4219 33.3108H34.7562V18.3462Z" fill="#DAE7EF"/>
<path d="M2.57812 18.3462C2.3946 18.3462 2.2157 18.3657 2.04304 18.4021V30.0076C2.04304 30.6548 1.51835 31.1795 0.871165 31.1795H0.0393677C0.251008 32.3903 1.30671 33.3108 2.57812 33.3108H5.24374V18.3462H2.57812ZM37.8352 18.3796C37.8569 18.5142 37.8687 18.6521 37.8687 18.7929V28.6013C37.8687 30.0251 36.7144 31.1794 35.2905 31.1794H34.7562V33.3107H37.4219C38.8457 33.3107 40 32.1564 40 30.7326V20.9243C40 19.6412 39.0625 18.5774 37.8352 18.3796Z" fill="#C1D5E4"/>
<path d="M15.1752 20.4431C15.096 20.4431 15.0176 20.4275 14.9444 20.3972C14.8713 20.3669 14.8048 20.3225 14.7488 20.2665C14.6928 20.2105 14.6484 20.1441 14.6181 20.0709C14.5878 19.9978 14.5722 19.9194 14.5723 19.8402V14.955C14.5723 14.7951 14.6358 14.6418 14.7488 14.5287C14.8619 14.4157 15.0153 14.3521 15.1752 14.3521C15.335 14.3521 15.4884 14.4157 15.6015 14.5287C15.7145 14.6418 15.778 14.7951 15.778 14.955V19.8402C15.778 20.0001 15.7145 20.1534 15.6015 20.2665C15.4884 20.3796 15.335 20.4431 15.1752 20.4431ZM27.2373 19.6004C27.1582 19.6004 27.0798 19.5848 27.0066 19.5545C26.9335 19.5242 26.867 19.4798 26.811 19.4238C26.755 19.3678 26.7106 19.3013 26.6803 19.2282C26.65 19.155 26.6344 19.0766 26.6344 18.9975V15.7977C26.6344 15.6378 26.698 15.4845 26.811 15.3714C26.9241 15.2583 27.0774 15.1948 27.2373 15.1948C27.3972 15.1948 27.5506 15.2583 27.6636 15.3714C27.7767 15.4845 27.8402 15.6378 27.8402 15.7977V18.9975C27.8402 19.0766 27.8247 19.155 27.7944 19.2282C27.7641 19.3013 27.7197 19.3678 27.6637 19.4238C27.6077 19.4798 27.5412 19.5242 27.4681 19.5545C27.3949 19.5848 27.3165 19.6004 27.2373 19.6004ZM17.5876 21.8001C17.5084 21.8001 17.43 21.7845 17.3568 21.7542C17.2837 21.724 17.2172 21.6795 17.1612 21.6236C17.1053 21.5676 17.0608 21.5011 17.0306 21.428C17.0003 21.3548 16.9847 21.2764 16.9847 21.1972V13.598C16.9847 13.4381 17.0482 13.2848 17.1613 13.1717C17.2743 13.0586 17.4277 12.9951 17.5876 12.9951C17.7475 12.9951 17.9008 13.0586 18.0139 13.1717C18.1269 13.2848 18.1905 13.4381 18.1905 13.598V21.1972C18.1904 21.3571 18.1269 21.5105 18.0139 21.6235C17.9008 21.7366 17.7475 21.8001 17.5876 21.8001ZM20 21.1216C19.9208 21.1216 19.8424 21.106 19.7693 21.0757C19.6961 21.0454 19.6296 21.001 19.5737 20.945C19.5177 20.8891 19.4733 20.8226 19.443 20.7494C19.4127 20.6763 19.3971 20.5979 19.3971 20.5187V14.2765C19.3971 14.1166 19.4606 13.9633 19.5737 13.8502C19.6867 13.7372 19.8401 13.6736 20 13.6736C20.1599 13.6736 20.3132 13.7372 20.4263 13.8502C20.5394 13.9633 20.6029 14.1166 20.6029 14.2765V20.5187C20.6029 20.6786 20.5393 20.8319 20.4263 20.945C20.3132 21.0581 20.1599 21.1216 20 21.1216ZM24.8249 21.8001C24.7457 21.8001 24.6673 21.7845 24.5942 21.7542C24.521 21.724 24.4546 21.6795 24.3986 21.6236C24.3426 21.5676 24.2982 21.5011 24.2679 21.428C24.2376 21.3548 24.222 21.2764 24.222 21.1972V13.598C24.222 13.4381 24.2855 13.2848 24.3986 13.1717C24.5117 13.0586 24.665 12.9951 24.8249 12.9951C24.9848 12.9951 25.1382 13.0586 25.2512 13.1717C25.3643 13.2848 25.4278 13.4381 25.4278 13.598V21.1972C25.4278 21.3571 25.3643 21.5105 25.2512 21.6235C25.1382 21.7366 24.9848 21.8001 24.8249 21.8001ZM22.4124 18.7576C22.3332 18.7576 22.2548 18.742 22.1817 18.7117C22.1085 18.6815 22.0421 18.637 21.9861 18.5811C21.9301 18.5251 21.8857 18.4586 21.8554 18.3855C21.8251 18.3123 21.8095 18.2339 21.8095 18.1547V16.6404C21.8095 16.4805 21.873 16.3272 21.9861 16.2141C22.0992 16.1011 22.2525 16.0375 22.4124 16.0375C22.5723 16.0375 22.7257 16.1011 22.8387 16.2141C22.9518 16.3272 23.0153 16.4805 23.0153 16.6404V18.1547C23.0153 18.3146 22.9518 18.468 22.8387 18.581C22.7257 18.6941 22.5723 18.7576 22.4124 18.7576ZM12.7626 18.7576C12.6835 18.7576 12.6051 18.742 12.5319 18.7117C12.4588 18.6815 12.3923 18.637 12.3363 18.5811C12.2803 18.5251 12.2359 18.4586 12.2056 18.3855C12.1753 18.3123 12.1597 18.2339 12.1598 18.1547V16.6404C12.1598 16.4805 12.2233 16.3272 12.3363 16.2141C12.4494 16.1011 12.6028 16.0375 12.7626 16.0375C12.9225 16.0375 13.0759 16.1011 13.189 16.2141C13.302 16.3272 13.3655 16.4805 13.3655 16.6404V18.1547C13.3656 18.2339 13.35 18.3123 13.3197 18.3855C13.2894 18.4586 13.245 18.5251 13.189 18.5811C13.133 18.637 13.0665 18.6815 12.9934 18.7117C12.9202 18.742 12.8418 18.7576 12.7626 18.7576Z" fill="#DD5790"/>
<path d="M23.1267 30.7192L18.3679 27.9717C18.0554 27.7913 17.6648 28.0168 17.6648 28.3776V33.8726C17.6648 34.2335 18.0554 34.459 18.3679 34.2786L23.1267 31.5311C23.4392 31.3507 23.4392 30.8996 23.1267 30.7192Z" fill="#F6F9F9"/>
<path d="M8.16305 35.7144H5.46743C4.78126 35.7144 4.22501 35.1581 4.22501 34.472V17.1843C4.22501 16.4981 4.78126 15.9419 5.46743 15.9419H8.16305C8.84922 15.9419 9.40547 16.4981 9.40547 17.1843V34.472C9.4054 35.1582 8.84915 35.7144 8.16305 35.7144ZM31.837 15.9419H34.5326C35.2188 15.9419 35.775 16.4981 35.775 17.1843V34.472C35.775 35.1582 35.2188 35.7145 34.5326 35.7145H31.837C31.1508 35.7145 30.5945 35.1582 30.5945 34.472V17.1843C30.5946 16.4981 31.1509 15.9419 31.837 15.9419Z" fill="#DAE7EF"/>
<path d="M8.16305 15.9419H7.20813V32.2748C7.20813 32.961 6.65188 33.5172 5.96571 33.5172H4.22501V34.472C4.22501 35.1582 4.78126 35.7145 5.46743 35.7145H8.16305C8.84922 35.7145 9.40547 35.1582 9.40547 34.472V17.1843C9.4054 16.4981 8.84922 15.9419 8.16305 15.9419ZM34.5326 15.9419H33.5777V32.2748C33.5777 32.961 33.0215 33.5172 32.3353 33.5172H30.5946V34.472C30.5946 35.1582 31.1509 35.7145 31.837 35.7145H34.5327C35.2188 35.7145 35.7751 35.1582 35.7751 34.472V17.1843C35.775 16.4981 35.2188 15.9419 34.5326 15.9419Z" fill="#C1D5E4"/>
</svg>
