<svg width="86" height="91" viewBox="0 0 86 91" fill="none" xmlns="http://www.w3.org/2000/svg">
<g clip-path="url(#clip0_3149_5111)">
<rect width="86" height="86" rx="43" fill="#ADBDCC"/>
<g opacity="0.5">
<path d="M43.0002 53.3333C52.2049 53.3333 59.6668 45.8714 59.6668 36.6667C59.6668 27.4619 52.2049 20 43.0002 20C33.7954 20 26.3335 27.4619 26.3335 36.6667C26.3335 45.8714 33.7954 53.3333 43.0002 53.3333ZM43.0002 53.3333C50.0726 53.3333 56.8554 56.1428 61.8563 61.1438C66.8573 66.1448 69.6668 72.9276 69.6668 80M43.0002 53.3333C35.9277 53.3333 29.145 56.1428 24.144 61.1438C19.143 66.1448 16.3335 72.9276 16.3335 80" stroke="white" stroke-width="1.5" stroke-linecap="round" stroke-linejoin="round"/>
</g>
</g>
<rect x="55" y="63" width="28" height="28" rx="14" fill="#1F739A"/>
<path d="M70.75 71.4004H67.25L65.5 73.5004H63.4C63.0287 73.5004 62.6726 73.6479 62.4101 73.9104C62.1475 74.173 62 74.5291 62 74.9004V81.2004C62 81.5717 62.1475 81.9278 62.4101 82.1903C62.6726 82.4529 63.0287 82.6004 63.4 82.6004H74.6C74.9713 82.6004 75.3274 82.4529 75.5899 82.1903C75.8525 81.9278 76 81.5717 76 81.2004V74.9004C76 74.5291 75.8525 74.173 75.5899 73.9104C75.3274 73.6479 74.9713 73.5004 74.6 73.5004H72.5L70.75 71.4004Z" stroke="white" stroke-width="1.5" stroke-linecap="round" stroke-linejoin="round"/>
<path d="M69 79.8004C70.1598 79.8004 71.1 78.8602 71.1 77.7004C71.1 76.5406 70.1598 75.6004 69 75.6004C67.8402 75.6004 66.9 76.5406 66.9 77.7004C66.9 78.8602 67.8402 79.8004 69 79.8004Z" stroke="white" stroke-width="1.5" stroke-linecap="round" stroke-linejoin="round"/>
<defs>
<clipPath id="clip0_3149_5111">
<rect width="86" height="86" rx="43" fill="white"/>
</clipPath>
</defs>
</svg>
