<svg width="17" height="17" viewBox="0 0 17 17" fill="none" xmlns="http://www.w3.org/2000/svg">
<path d="M11.1666 14.0244V12.6911C11.1666 11.9838 10.8857 11.3056 10.3856 10.8055C9.8855 10.3054 9.20722 10.0244 8.49998 10.0244H4.49998C3.79274 10.0244 3.11446 10.3054 2.61436 10.8055C2.11426 11.3056 1.83331 11.9838 1.83331 12.6911V14.0244M13.1666 5.35775V9.35775M15.1666 7.35775H11.1666M9.16665 4.69108C9.16665 6.16384 7.97274 7.35775 6.49998 7.35775C5.02722 7.35775 3.83331 6.16384 3.83331 4.69108C3.83331 3.21832 5.02722 2.02441 6.49998 2.02441C7.97274 2.02441 9.16665 3.21832 9.16665 4.69108Z" stroke="white" stroke-width="1.5" stroke-linecap="round" stroke-linejoin="round"/>
</svg>
