<svg width="35" height="36" viewBox="0 0 35 36" fill="none" xmlns="http://www.w3.org/2000/svg">
<g clip-path="url(#clip0_791_3397)">
<path d="M9.81201 33.3763H7.61542C5.18928 33.3763 3.22217 31.4094 3.22217 28.983C3.22217 26.5567 5.18928 24.5898 7.61542 24.5898H31.7782M16.4019 33.3763H31.7782" stroke="black" stroke-width="1.5" stroke-miterlimit="10" stroke-linecap="round" stroke-linejoin="round"/>
<path d="M7.61523 28.9832H28.8598M30.6797 33.3763C30.6797 33.3763 30.6797 33.3761 30.6791 33.3757C30.1023 32.7989 29.6447 32.1141 29.3325 31.3604C29.0203 30.6067 28.8597 29.7989 28.8598 28.9831C28.8597 28.1673 29.0204 27.3595 29.3325 26.6058C29.6447 25.8521 30.1023 25.1673 30.6791 24.5905C30.6797 24.5901 30.6797 24.5898 30.6797 24.5898M9.81183 28.9832V34.4747L13.1067 33.3763L16.4017 34.4747V28.9832H9.81183Z" stroke="black" stroke-width="1.5" stroke-miterlimit="10" stroke-linecap="round" stroke-linejoin="round"/>
<path d="M31.7782 1.52539H7.61542C7.03848 1.52535 6.46718 1.63897 5.93415 1.85973C5.40112 2.0805 4.9168 2.40411 4.50884 2.81206C4.10088 3.22002 3.77728 3.70435 3.55651 4.23738C3.33574 4.77041 3.22213 5.3417 3.22217 5.91864V28.9831V28.982C3.2222 28.4052 3.33584 27.8341 3.55661 27.3012C3.77738 26.7683 4.10094 26.2841 4.50883 25.8763C4.91659 25.4684 5.40072 25.1449 5.93356 24.9241C6.4664 24.7034 7.03751 24.5898 7.61426 24.5898H31.7781V1.52539H31.7782Z" stroke="black" stroke-width="1.5" stroke-miterlimit="10" stroke-linecap="round" stroke-linejoin="round"/>
<path d="M9.81201 16.3525L12.5578 9.7627L15.3036 16.3525M10.2695 15.2542H14.8461M18.0493 13.0576H20.246M22.9917 9.7627H27.385L22.9917 16.3525H27.385" stroke="black" stroke-width="1.5" stroke-miterlimit="10" stroke-linecap="round" stroke-linejoin="round"/>
</g>
<defs>
<clipPath id="clip0_791_3397">
<rect width="35" height="35" fill="white" transform="translate(0 0.5)"/>
</clipPath>
</defs>
</svg>
