<svg width="61" height="61" viewBox="0 0 61 61" fill="none" xmlns="http://www.w3.org/2000/svg">
<g clip-path="url(#clip0_3140_7629)">
<path d="M45.5 53L55.5 43L52 39.5L48 43.5V33.0625H43V43.5L39 39.5L35.5 43L45.5 53ZM35.5 60.5V55.5H55.5V60.5H35.5ZM15.5 50.5C14.125 50.5 12.9483 50.0108 11.97 49.0325C10.9917 48.0542 10.5017 46.8767 10.5 45.5V10.5C10.5 9.125 10.99 7.94833 11.97 6.97C12.95 5.99167 14.1267 5.50167 15.5 5.5H33L48 20.5V28.0625H43V23H30.5V10.5H15.5V45.5H30.5V50.5H15.5Z" fill="#979797"/>
</g>
<defs>
<clipPath id="clip0_3140_7629">
<rect width="60" height="60" fill="white" transform="translate(0.5 0.5)"/>
</clipPath>
</defs>
</svg>
