<svg width="53" height="54" viewBox="0 0 53 54" fill="none" xmlns="http://www.w3.org/2000/svg">
<rect width="53" height="54" rx="26.5" fill="#1B9ADE"/>
<path d="M37 26.9999C37.0008 27.3051 36.9177 27.6053 36.7588 27.8714C36.5999 28.1374 36.3706 28.3602 36.0932 28.5181L18.9018 38.423C18.612 38.5902 18.28 38.6815 17.9402 38.6874C17.6004 38.6933 17.2651 38.6137 16.9689 38.4568C16.6755 38.3023 16.4311 38.0769 16.2608 37.804C16.0905 37.531 16.0005 37.2203 16 36.9037V17.096C16.0005 16.7794 16.0905 16.4687 16.2608 16.1957C16.4311 15.9228 16.6755 15.6974 16.9689 15.5429C17.2651 15.386 17.6004 15.3064 17.9402 15.3123C18.28 15.3182 18.612 15.4095 18.9018 15.5767L36.0932 25.4816C36.3706 25.6395 36.5999 25.8623 36.7588 26.1283C36.9177 26.3944 37.0008 26.6946 37 26.9999Z" fill="white"/>
</svg>
