<svg width="41" height="42" viewBox="0 0 41 42" fill="none" xmlns="http://www.w3.org/2000/svg">
<g clip-path="url(#clip0_791_3433)">
<path d="M27.2626 20.1986L18.7491 14.0099C18.5961 13.8984 18.4153 13.8314 18.2266 13.8163C18.0379 13.8011 17.8488 13.8385 17.68 13.9242C17.5112 14.01 17.3695 14.1407 17.2704 14.302C17.1713 14.4632 17.1188 14.6488 17.1187 14.8381V27.2113C17.1181 27.4009 17.1702 27.5869 17.2691 27.7486C17.3681 27.9103 17.51 28.0413 17.6791 28.1271C17.8482 28.2128 18.0378 28.2499 18.2267 28.2342C18.4156 28.2185 18.5965 28.1506 18.7491 28.0381L27.2626 21.8549C27.3941 21.7606 27.5013 21.6362 27.5752 21.4922C27.6492 21.3482 27.6877 21.1886 27.6877 21.0268C27.6877 20.8649 27.6492 20.7053 27.5752 20.5613C27.5013 20.4173 27.3941 20.2929 27.2626 20.1986Z" fill="black"/>
<path d="M20.5007 0.50293C9.1766 0.50293 0 9.67953 0 21.0036C0 32.3236 9.1766 41.4975 20.5007 41.4975C31.822 41.4975 41 32.3222 41 21.0036C41.0014 9.67953 31.822 0.50293 20.5007 0.50293ZM20.5007 38.077C11.0703 38.077 3.42451 30.4353 3.42451 21.0036C3.42451 11.576 11.0703 3.92471 20.5007 3.92471C29.9297 3.92471 37.5741 11.5746 37.5741 21.0036C37.5755 30.4353 29.9297 38.077 20.5007 38.077Z" fill="black"/>
</g>
<defs>
<clipPath id="clip0_791_3433">
<rect width="41" height="41" fill="white" transform="translate(0 0.5)"/>
</clipPath>
</defs>
</svg>
