<svg width="34" height="33" viewBox="0 0 34 33" fill="none" xmlns="http://www.w3.org/2000/svg">
<path d="M5.62625 23.6225C5.365 23.6225 5.10375 23.5262 4.8975 23.32C3.01375 21.4225 1.96875 18.92 1.96875 16.2662C1.96875 10.7525 6.4375 6.26996 11.9375 6.26996L20.2837 6.29746L18.785 4.86746C18.3725 4.46871 18.3587 3.82246 18.7575 3.40996C19.1562 2.99746 19.8025 2.98371 20.215 3.38246L23.57 6.59996C23.8725 6.88871 23.9688 7.34246 23.8175 7.72746C23.6662 8.11246 23.2812 8.37371 22.855 8.37371L11.9375 8.34621C7.57875 8.34621 4.03125 11.9075 4.03125 16.28C4.03125 18.3837 4.85625 20.3775 6.355 21.8762C6.75375 22.275 6.75375 22.935 6.355 23.3337C6.14875 23.5262 5.8875 23.6225 5.62625 23.6225Z" fill="white"/>
<path d="M13.9999 29.9062C13.7386 29.9062 13.4911 29.81 13.2849 29.6175L9.92986 26.4C9.62736 26.1113 9.53111 25.6575 9.68236 25.2725C9.84736 24.8875 10.2324 24.6812 10.6449 24.6262L21.5761 24.6538C25.9349 24.6538 29.4824 21.0925 29.4824 16.72C29.4824 14.6163 28.6574 12.6225 27.1586 11.1237C26.7599 10.725 26.7599 10.065 27.1586 9.66625C27.5574 9.2675 28.2174 9.2675 28.6161 9.66625C30.4999 11.5638 31.5449 14.0662 31.5449 16.72C31.5449 22.2338 27.0761 26.7163 21.5761 26.7163L13.2299 26.6887L14.7286 28.1188C15.1411 28.5175 15.1549 29.1637 14.7561 29.5763C14.5361 29.7962 14.2749 29.9062 13.9999 29.9062Z" fill="white"/>
</svg>
