<svg width="61" height="61" viewBox="0 0 61 61" fill="none" xmlns="http://www.w3.org/2000/svg">
<path d="M53.9375 9.875V19.25C53.9375 19.9959 53.6412 20.7113 53.1137 21.2387C52.5863 21.7662 51.8709 22.0625 51.125 22.0625C50.3791 22.0625 49.6637 21.7662 49.1363 21.2387C48.6088 20.7113 48.3125 19.9959 48.3125 19.25V12.6875H41.75C41.0041 12.6875 40.2887 12.3912 39.7613 11.8637C39.2338 11.3363 38.9375 10.6209 38.9375 9.875C38.9375 9.12908 39.2338 8.41371 39.7613 7.88626C40.2887 7.35882 41.0041 7.0625 41.75 7.0625H51.125C51.8709 7.0625 52.5863 7.35882 53.1137 7.88626C53.6412 8.41371 53.9375 9.12908 53.9375 9.875ZM19.25 48.3125H12.6875V41.75C12.6875 41.0041 12.3912 40.2887 11.8637 39.7613C11.3363 39.2338 10.6209 38.9375 9.875 38.9375C9.12908 38.9375 8.41371 39.2338 7.88626 39.7613C7.35882 40.2887 7.0625 41.0041 7.0625 41.75V51.125C7.0625 51.8709 7.35882 52.5863 7.88626 53.1137C8.41371 53.6412 9.12908 53.9375 9.875 53.9375H19.25C19.9959 53.9375 20.7113 53.6412 21.2387 53.1137C21.7662 52.5863 22.0625 51.8709 22.0625 51.125C22.0625 50.3791 21.7662 49.6637 21.2387 49.1363C20.7113 48.6088 19.9959 48.3125 19.25 48.3125ZM51.125 38.9375C50.3791 38.9375 49.6637 39.2338 49.1363 39.7613C48.6088 40.2887 48.3125 41.0041 48.3125 41.75V48.3125H41.75C41.0041 48.3125 40.2887 48.6088 39.7613 49.1363C39.2338 49.6637 38.9375 50.3791 38.9375 51.125C38.9375 51.8709 39.2338 52.5863 39.7613 53.1137C40.2887 53.6412 41.0041 53.9375 41.75 53.9375H51.125C51.8709 53.9375 52.5863 53.6412 53.1137 53.1137C53.6412 52.5863 53.9375 51.8709 53.9375 51.125V41.75C53.9375 41.0041 53.6412 40.2887 53.1137 39.7613C52.5863 39.2338 51.8709 38.9375 51.125 38.9375ZM9.875 22.0625C10.6209 22.0625 11.3363 21.7662 11.8637 21.2387C12.3912 20.7113 12.6875 19.9959 12.6875 19.25V12.6875H19.25C19.9959 12.6875 20.7113 12.3912 21.2387 11.8637C21.7662 11.3363 22.0625 10.6209 22.0625 9.875C22.0625 9.12908 21.7662 8.41371 21.2387 7.88626C20.7113 7.35882 19.9959 7.0625 19.25 7.0625H9.875C9.12908 7.0625 8.41371 7.35882 7.88626 7.88626C7.35882 8.41371 7.0625 9.12908 7.0625 9.875V19.25C7.0625 19.9959 7.35882 20.7113 7.88626 21.2387C8.41371 21.7662 9.12908 22.0625 9.875 22.0625ZM20.1875 17.375H40.8125C41.5584 17.375 42.2738 17.6713 42.8012 18.1988C43.3287 18.7262 43.625 19.4416 43.625 20.1875V40.8125C43.625 41.5584 43.3287 42.2738 42.8012 42.8012C42.2738 43.3287 41.5584 43.625 40.8125 43.625H20.1875C19.4416 43.625 18.7262 43.3287 18.1988 42.8012C17.6713 42.2738 17.375 41.5584 17.375 40.8125V20.1875C17.375 19.4416 17.6713 18.7262 18.1988 18.1988C18.7262 17.6713 19.4416 17.375 20.1875 17.375ZM23 38H38V23H23V38Z" fill="#979797"/>
</svg>
