<svg width="135" height="44" viewBox="0 0 135 44" fill="none" xmlns="http://www.w3.org/2000/svg">
<path fill-rule="evenodd" clip-rule="evenodd" d="M84 4.5C84 3.306 83.526 2.1615 82.6815 1.3185C82.2639 0.900342 81.768 0.568645 81.2221 0.342399C80.6761 0.116153 80.091 -0.000200349 79.5 2.58964e-07H55.5C54.306 2.58964e-07 53.1615 0.474001 52.3185 1.3185C51.9003 1.73607 51.5686 2.23201 51.3424 2.77794C51.1162 3.32386 50.9998 3.90905 51 4.5V19.5C51 20.694 51.474 21.8385 52.3185 22.6815C52.7361 23.0997 53.232 23.4314 53.7779 23.6576C54.3239 23.8839 54.9091 24.0002 55.5 24H79.5C80.694 24 81.8385 23.526 82.6815 22.6815C83.0997 22.2639 83.4314 21.768 83.6576 21.2221C83.8838 20.6761 84.0002 20.091 84 19.5V4.5ZM81 4.5V19.5C81.0006 19.6972 80.9622 19.8925 80.887 20.0747C80.8119 20.257 80.7014 20.4226 80.562 20.562C80.4226 20.7014 80.257 20.8119 80.0747 20.887C79.8925 20.9622 79.6971 21.0006 79.5 21H55.5C55.3029 21.0006 55.1075 20.9622 54.9253 20.887C54.743 20.8119 54.5774 20.7014 54.438 20.562C54.2986 20.4226 54.1881 20.257 54.113 20.0747C54.0378 19.8925 53.9994 19.6972 54 19.5V4.5C53.9994 4.30285 54.0378 4.10753 54.113 3.92527C54.1881 3.74302 54.2986 3.57742 54.438 3.43802C54.5774 3.29861 54.743 3.18814 54.9253 3.11297C55.1075 3.0378 55.3029 2.99941 55.5 3H79.5C79.6971 2.99941 79.8925 3.0378 80.0747 3.11297C80.257 3.18814 80.4226 3.29861 80.562 3.43802C80.7014 3.57742 80.8119 3.74302 80.887 3.92527C80.9622 4.10753 81.0006 4.30285 81 4.5ZM58.5 18H61.5C61.8978 18 62.2794 17.842 62.5607 17.5607C62.842 17.2794 63 16.8978 63 16.5C63 16.1022 62.842 15.7206 62.5607 15.4393C62.2794 15.158 61.8978 15 61.5 15H58.5C58.1022 15 57.7206 15.158 57.4393 15.4393C57.158 15.7206 57 16.1022 57 16.5C57 16.8978 57.158 17.2794 57.4393 17.5607C57.7206 17.842 58.1022 18 58.5 18ZM67.5 18H76.5C76.8978 18 77.2794 17.842 77.5607 17.5607C77.842 17.2794 78 16.8978 78 16.5C78 16.1022 77.842 15.7206 77.5607 15.4393C77.2794 15.158 76.8978 15 76.5 15H67.5C67.1022 15 66.7206 15.158 66.4393 15.4393C66.158 15.7206 66 16.1022 66 16.5C66 16.8978 66.158 17.2794 66.4393 17.5607C66.7206 17.842 67.1022 18 67.5 18ZM75 12H76.5C76.8978 12 77.2794 11.842 77.5607 11.5607C77.842 11.2794 78 10.8978 78 10.5C78 10.1022 77.842 9.72065 77.5607 9.43934C77.2794 9.15804 76.8978 9 76.5 9H75C74.6022 9 74.2206 9.15804 73.9393 9.43934C73.658 9.72065 73.5 10.1022 73.5 10.5C73.5 10.8978 73.658 11.2794 73.9393 11.5607C74.2206 11.842 74.6022 12 75 12ZM58.5 12H69C69.3978 12 69.7794 11.842 70.0607 11.5607C70.342 11.2794 70.5 10.8978 70.5 10.5C70.5 10.1022 70.342 9.72065 70.0607 9.43934C69.7794 9.15804 69.3978 9 69 9H58.5C58.1022 9 57.7206 9.15804 57.4393 9.43934C57.158 9.72065 57 10.1022 57 10.5C57 10.8978 57.158 11.2794 57.4393 11.5607C57.7206 11.842 58.1022 12 58.5 12Z" fill="black"/>
<path d="M4.51199 40.117C4.10466 40.117 3.70599 40.0823 3.31599 40.013C2.92599 39.9437 2.56199 39.844 2.22399 39.714C1.89466 39.584 1.59566 39.4193 1.32699 39.22C1.22299 39.142 1.14933 39.0553 1.10599 38.96C1.07133 38.856 1.06266 38.7563 1.07999 38.661C1.10599 38.557 1.14933 38.4703 1.20999 38.401C1.27933 38.3317 1.36166 38.2927 1.45699 38.284C1.55233 38.2753 1.65633 38.3057 1.76899 38.375C2.15899 38.6523 2.57499 38.856 3.01699 38.986C3.45899 39.1073 3.95733 39.168 4.51199 39.168C5.29199 39.168 5.86833 39.025 6.24099 38.739C6.62233 38.4443 6.81299 38.0587 6.81299 37.582C6.81299 37.192 6.67433 36.8887 6.39699 36.672C6.12833 36.4467 5.67333 36.269 5.03199 36.139L3.67999 35.866C2.86533 35.6927 2.25433 35.411 1.84699 35.021C1.44833 34.6223 1.24899 34.0937 1.24899 33.435C1.24899 33.0277 1.33133 32.6593 1.49599 32.33C1.66066 31.992 1.89033 31.706 2.18499 31.472C2.47966 31.2293 2.83066 31.043 3.23799 30.913C3.64533 30.783 4.09599 30.718 4.58999 30.718C5.13599 30.718 5.64299 30.796 6.11099 30.952C6.58766 31.0993 7.01666 31.3247 7.39799 31.628C7.49333 31.706 7.55833 31.797 7.59299 31.901C7.62766 31.9963 7.63199 32.0917 7.60599 32.187C7.57999 32.2737 7.53233 32.3473 7.46299 32.408C7.40233 32.4687 7.31999 32.5033 7.21599 32.512C7.12066 32.5207 7.01233 32.486 6.89099 32.408C6.54433 32.148 6.18466 31.9617 5.81199 31.849C5.43933 31.7277 5.02766 31.667 4.57699 31.667C4.11766 31.667 3.71899 31.7363 3.38099 31.875C3.05166 32.0137 2.79166 32.2173 2.60099 32.486C2.41899 32.746 2.32799 33.0493 2.32799 33.396C2.32799 33.812 2.45366 34.1413 2.70499 34.384C2.96499 34.6267 3.38533 34.8043 3.96599 34.917L5.31799 35.203C6.19333 35.385 6.83899 35.6623 7.25499 36.035C7.67966 36.399 7.89199 36.8973 7.89199 37.53C7.89199 37.9113 7.81399 38.2623 7.65799 38.583C7.50199 38.9037 7.27666 39.181 6.98199 39.415C6.68733 39.6403 6.33199 39.8137 5.91599 39.935C5.49999 40.0563 5.03199 40.117 4.51199 40.117ZM12.25 40.117C11.5827 40.117 11.0064 39.987 10.521 39.727C10.0444 39.4583 9.67171 39.0813 9.40304 38.596C9.14304 38.1107 9.01304 37.53 9.01304 36.854C9.01304 36.1953 9.14304 35.6233 9.40304 35.138C9.66304 34.644 10.0184 34.2583 10.469 33.981C10.9284 33.7037 11.457 33.565 12.055 33.565C12.4797 33.565 12.861 33.6387 13.199 33.786C13.537 33.9247 13.823 34.1283 14.057 34.397C14.2997 34.6657 14.4817 34.9907 14.603 35.372C14.733 35.7533 14.798 36.1823 14.798 36.659C14.798 36.7977 14.759 36.9017 14.681 36.971C14.603 37.0317 14.4904 37.062 14.343 37.062H9.81904V36.373H14.096L13.888 36.542C13.888 36.074 13.8187 35.6797 13.68 35.359C13.5414 35.0297 13.3377 34.7783 13.069 34.605C12.809 34.4317 12.4797 34.345 12.081 34.345C11.639 34.345 11.262 34.449 10.95 34.657C10.6467 34.8563 10.417 35.138 10.261 35.502C10.105 35.8573 10.027 36.2733 10.027 36.75V36.828C10.027 37.6253 10.2177 38.232 10.599 38.648C10.989 39.064 11.5394 39.272 12.25 39.272C12.5447 39.272 12.835 39.233 13.121 39.155C13.4157 39.077 13.7017 38.947 13.979 38.765C14.1004 38.687 14.2087 38.6523 14.304 38.661C14.408 38.661 14.4904 38.6913 14.551 38.752C14.6117 38.804 14.6507 38.8733 14.668 38.96C14.694 39.038 14.6854 39.1247 14.642 39.22C14.6074 39.3153 14.5337 39.3977 14.421 39.467C14.135 39.675 13.797 39.8353 13.407 39.948C13.017 40.0607 12.6314 40.117 12.25 40.117ZM16.842 40.091C16.6687 40.091 16.5387 40.0433 16.452 39.948C16.3653 39.8527 16.322 39.7183 16.322 39.545V34.124C16.322 33.9507 16.3653 33.8207 16.452 33.734C16.5387 33.6387 16.6643 33.591 16.829 33.591C16.9937 33.591 17.1193 33.6387 17.206 33.734C17.3013 33.8207 17.349 33.9507 17.349 34.124V35.242L17.206 35.086C17.388 34.5833 17.6827 34.2063 18.09 33.955C18.506 33.695 18.9827 33.565 19.52 33.565C20.0227 33.565 20.4387 33.656 20.768 33.838C21.106 34.02 21.3573 34.2973 21.522 34.67C21.6867 35.034 21.769 35.4977 21.769 36.061V39.545C21.769 39.7183 21.7213 39.8527 21.626 39.948C21.5393 40.0433 21.4137 40.091 21.249 40.091C21.0757 40.091 20.9413 40.0433 20.846 39.948C20.7593 39.8527 20.716 39.7183 20.716 39.545V36.126C20.716 35.5367 20.599 35.1077 20.365 34.839C20.1397 34.5617 19.7757 34.423 19.273 34.423C18.6923 34.423 18.2287 34.605 17.882 34.969C17.544 35.3243 17.375 35.801 17.375 36.399V39.545C17.375 39.909 17.1973 40.091 16.842 40.091ZM26.2457 40.117C25.7517 40.117 25.3357 40.0303 24.9977 39.857C24.6683 39.675 24.4213 39.415 24.2567 39.077C24.092 38.7303 24.0097 38.31 24.0097 37.816V34.501H23.1387C22.9913 34.501 22.8787 34.4663 22.8007 34.397C22.7227 34.319 22.6837 34.215 22.6837 34.085C22.6837 33.955 22.7227 33.8553 22.8007 33.786C22.8787 33.7167 22.9913 33.682 23.1387 33.682H24.0097V32.187C24.0097 32.0137 24.0573 31.8837 24.1527 31.797C24.248 31.7017 24.378 31.654 24.5427 31.654C24.7073 31.654 24.833 31.7017 24.9197 31.797C25.015 31.8837 25.0627 32.0137 25.0627 32.187V33.682H26.7007C26.848 33.682 26.9607 33.7167 27.0387 33.786C27.1167 33.8553 27.1557 33.955 27.1557 34.085C27.1557 34.215 27.1167 34.319 27.0387 34.397C26.9607 34.4663 26.848 34.501 26.7007 34.501H25.0627V37.712C25.0627 38.206 25.1667 38.583 25.3747 38.843C25.5827 39.0943 25.9207 39.22 26.3887 39.22C26.5533 39.22 26.692 39.2027 26.8047 39.168C26.926 39.1333 27.0257 39.116 27.1037 39.116C27.1817 39.1073 27.2467 39.1333 27.2987 39.194C27.3507 39.2547 27.3767 39.3587 27.3767 39.506C27.3767 39.61 27.355 39.7053 27.3117 39.792C27.277 39.8787 27.212 39.9393 27.1167 39.974C27.0127 40.0087 26.874 40.039 26.7007 40.065C26.536 40.0997 26.3843 40.117 26.2457 40.117ZM31.0391 40.117C30.3718 40.117 29.7954 39.987 29.3101 39.727C28.8334 39.4583 28.4608 39.0813 28.1921 38.596C27.9321 38.1107 27.8021 37.53 27.8021 36.854C27.8021 36.1953 27.9321 35.6233 28.1921 35.138C28.4521 34.644 28.8074 34.2583 29.2581 33.981C29.7174 33.7037 30.2461 33.565 30.8441 33.565C31.2688 33.565 31.6501 33.6387 31.9881 33.786C32.3261 33.9247 32.6121 34.1283 32.8461 34.397C33.0888 34.6657 33.2708 34.9907 33.3921 35.372C33.5221 35.7533 33.5871 36.1823 33.5871 36.659C33.5871 36.7977 33.5481 36.9017 33.4701 36.971C33.3921 37.0317 33.2794 37.062 33.1321 37.062H28.6081V36.373H32.8851L32.6771 36.542C32.6771 36.074 32.6078 35.6797 32.4691 35.359C32.3304 35.0297 32.1268 34.7783 31.8581 34.605C31.5981 34.4317 31.2688 34.345 30.8701 34.345C30.4281 34.345 30.0511 34.449 29.7391 34.657C29.4358 34.8563 29.2061 35.138 29.0501 35.502C28.8941 35.8573 28.8161 36.2733 28.8161 36.75V36.828C28.8161 37.6253 29.0068 38.232 29.3881 38.648C29.7781 39.064 30.3284 39.272 31.0391 39.272C31.3338 39.272 31.6241 39.233 31.9101 39.155C32.2048 39.077 32.4908 38.947 32.7681 38.765C32.8894 38.687 32.9978 38.6523 33.0931 38.661C33.1971 38.661 33.2794 38.6913 33.3401 38.752C33.4008 38.804 33.4398 38.8733 33.4571 38.96C33.4831 39.038 33.4744 39.1247 33.4311 39.22C33.3964 39.3153 33.3228 39.3977 33.2101 39.467C32.9241 39.675 32.5861 39.8353 32.1961 39.948C31.8061 40.0607 31.4204 40.117 31.0391 40.117ZM35.631 40.091C35.4577 40.091 35.3277 40.0433 35.241 39.948C35.1544 39.8527 35.111 39.7183 35.111 39.545V34.124C35.111 33.9507 35.1544 33.8207 35.241 33.734C35.3277 33.6387 35.4534 33.591 35.618 33.591C35.7827 33.591 35.9084 33.6387 35.995 33.734C36.0904 33.8207 36.138 33.9507 36.138 34.124V35.242L35.995 35.086C36.177 34.5833 36.4717 34.2063 36.879 33.955C37.295 33.695 37.7717 33.565 38.309 33.565C38.8117 33.565 39.2277 33.656 39.557 33.838C39.895 34.02 40.1464 34.2973 40.311 34.67C40.4757 35.034 40.558 35.4977 40.558 36.061V39.545C40.558 39.7183 40.5104 39.8527 40.415 39.948C40.3284 40.0433 40.2027 40.091 40.038 40.091C39.8647 40.091 39.7304 40.0433 39.635 39.948C39.5484 39.8527 39.505 39.7183 39.505 39.545V36.126C39.505 35.5367 39.388 35.1077 39.154 34.839C38.9287 34.5617 38.5647 34.423 38.062 34.423C37.4814 34.423 37.0177 34.605 36.671 34.969C36.333 35.3243 36.164 35.801 36.164 36.399V39.545C36.164 39.909 35.9864 40.091 35.631 40.091ZM45.1777 40.117C44.5451 40.117 43.9991 39.9783 43.5397 39.701C43.0804 39.4237 42.7251 39.038 42.4737 38.544C42.2311 38.0413 42.1097 37.4607 42.1097 36.802C42.1097 36.2993 42.1791 35.8487 42.3177 35.45C42.4564 35.0513 42.6601 34.7133 42.9287 34.436C43.1974 34.15 43.5181 33.9333 43.8907 33.786C44.2721 33.6387 44.7011 33.565 45.1777 33.565C45.4897 33.565 45.8147 33.6127 46.1527 33.708C46.4907 33.8033 46.7984 33.968 47.0757 34.202C47.1624 34.2627 47.2187 34.3363 47.2447 34.423C47.2707 34.5097 47.2707 34.5963 47.2447 34.683C47.2187 34.761 47.1754 34.8303 47.1147 34.891C47.0541 34.943 46.9761 34.9733 46.8807 34.982C46.7941 34.9907 46.7031 34.9603 46.6077 34.891C46.3824 34.7177 46.1527 34.5963 45.9187 34.527C45.6847 34.4577 45.4594 34.423 45.2427 34.423C44.9047 34.423 44.6101 34.4793 44.3587 34.592C44.1074 34.696 43.8951 34.8477 43.7217 35.047C43.5484 35.2463 43.4141 35.4933 43.3187 35.788C43.2321 36.0827 43.1887 36.425 43.1887 36.815C43.1887 37.569 43.3664 38.167 43.7217 38.609C44.0771 39.0423 44.5841 39.259 45.2427 39.259C45.4594 39.259 45.6804 39.2243 45.9057 39.155C46.1397 39.0857 46.3737 38.9643 46.6077 38.791C46.7031 38.7217 46.7941 38.6913 46.8807 38.7C46.9674 38.7087 47.0411 38.7433 47.1017 38.804C47.1624 38.856 47.2014 38.9253 47.2187 39.012C47.2447 39.0987 47.2447 39.1853 47.2187 39.272C47.1927 39.35 47.1364 39.4193 47.0497 39.48C46.7724 39.7053 46.4691 39.87 46.1397 39.974C45.8104 40.0693 45.4897 40.117 45.1777 40.117ZM51.2373 40.117C50.57 40.117 49.9937 39.987 49.5083 39.727C49.0317 39.4583 48.659 39.0813 48.3903 38.596C48.1303 38.1107 48.0003 37.53 48.0003 36.854C48.0003 36.1953 48.1303 35.6233 48.3903 35.138C48.6503 34.644 49.0057 34.2583 49.4563 33.981C49.9157 33.7037 50.4443 33.565 51.0423 33.565C51.467 33.565 51.8483 33.6387 52.1863 33.786C52.5243 33.9247 52.8103 34.1283 53.0443 34.397C53.287 34.6657 53.469 34.9907 53.5903 35.372C53.7203 35.7533 53.7853 36.1823 53.7853 36.659C53.7853 36.7977 53.7463 36.9017 53.6683 36.971C53.5903 37.0317 53.4777 37.062 53.3303 37.062H48.8063V36.373H53.0833L52.8753 36.542C52.8753 36.074 52.806 35.6797 52.6673 35.359C52.5287 35.0297 52.325 34.7783 52.0563 34.605C51.7963 34.4317 51.467 34.345 51.0683 34.345C50.6263 34.345 50.2493 34.449 49.9373 34.657C49.634 34.8563 49.4043 35.138 49.2483 35.502C49.0923 35.8573 49.0143 36.2733 49.0143 36.75V36.828C49.0143 37.6253 49.205 38.232 49.5863 38.648C49.9763 39.064 50.5267 39.272 51.2373 39.272C51.532 39.272 51.8223 39.233 52.1083 39.155C52.403 39.077 52.689 38.947 52.9663 38.765C53.0877 38.687 53.196 38.6523 53.2913 38.661C53.3953 38.661 53.4777 38.6913 53.5383 38.752C53.599 38.804 53.638 38.8733 53.6553 38.96C53.6813 39.038 53.6727 39.1247 53.6293 39.22C53.5947 39.3153 53.521 39.3977 53.4083 39.467C53.1223 39.675 52.7843 39.8353 52.3943 39.948C52.0043 40.0607 51.6187 40.117 51.2373 40.117ZM61.4039 40.117C60.7972 40.117 60.2729 40.0217 59.8309 39.831C59.3889 39.6317 59.0509 39.3587 58.8169 39.012C58.5915 38.6653 58.4789 38.2623 58.4789 37.803C58.4789 37.5083 58.5179 37.2397 58.5959 36.997C58.6739 36.7457 58.7909 36.5117 58.9469 36.295C59.1115 36.0697 59.3152 35.853 59.5579 35.645C59.8005 35.437 60.0822 35.2247 60.4029 35.008L60.8189 34.735L60.6759 34.956C60.2599 34.5053 59.9652 34.1153 59.7919 33.786C59.6272 33.448 59.5449 33.1013 59.5449 32.746C59.5449 32.3473 59.6359 31.9963 59.8179 31.693C59.9999 31.381 60.2599 31.1427 60.5979 30.978C60.9445 30.8047 61.3432 30.718 61.7939 30.718C62.4005 30.718 62.8945 30.887 63.2759 31.225C63.6572 31.5543 63.8479 32.005 63.8479 32.577C63.8479 32.889 63.7872 33.1837 63.6659 33.461C63.5445 33.7297 63.3409 34.0027 63.0549 34.28C62.7689 34.5487 62.3702 34.8347 61.8589 35.138L61.8849 34.865L64.3159 37.595H64.0819C64.2032 37.387 64.3072 37.1487 64.3939 36.88C64.4892 36.6113 64.5672 36.321 64.6279 36.009C64.6972 35.6883 64.7449 35.3503 64.7709 34.995C64.7882 34.8477 64.8359 34.735 64.9139 34.657C64.9919 34.579 65.1045 34.54 65.2519 34.54C65.3992 34.54 65.5119 34.5833 65.5899 34.67C65.6679 34.7567 65.6982 34.8823 65.6809 35.047C65.6462 35.4803 65.5855 35.892 65.4989 36.282C65.4122 36.672 65.2995 37.036 65.1609 37.374C65.0222 37.7033 64.8662 38.0067 64.6929 38.284L64.6799 37.972L65.9669 39.389C66.0795 39.5017 66.1315 39.6143 66.1229 39.727C66.1229 39.831 66.0795 39.9177 65.9929 39.987C65.9149 40.0563 65.8065 40.091 65.6679 40.091C65.5465 40.091 65.4469 40.065 65.3689 40.013C65.2909 39.9697 65.1999 39.9003 65.0959 39.805L64.1079 38.687H64.3809C64.0169 39.1377 63.5792 39.4887 63.0679 39.74C62.5565 39.9913 62.0019 40.117 61.4039 40.117ZM61.4559 39.246C61.9499 39.246 62.3875 39.142 62.7689 38.934C63.1589 38.726 63.4969 38.4227 63.7829 38.024L63.7699 38.349L61.0139 35.333L61.4299 35.372L61.0269 35.632C60.6542 35.8747 60.3552 36.1043 60.1299 36.321C59.9132 36.529 59.7572 36.7457 59.6619 36.971C59.5665 37.1963 59.5189 37.4477 59.5189 37.725C59.5189 38.2017 59.6835 38.5743 60.0129 38.843C60.3422 39.1117 60.8232 39.246 61.4559 39.246ZM61.7939 31.537C61.4212 31.537 61.1179 31.6453 60.8839 31.862C60.6499 32.0787 60.5329 32.3647 60.5329 32.72C60.5329 32.9107 60.5589 33.0883 60.6109 33.253C60.6715 33.409 60.7755 33.5867 60.9229 33.786C61.0702 33.9767 61.2739 34.2237 61.5339 34.527L61.2609 34.54C61.6769 34.2713 62.0062 34.0373 62.2489 33.838C62.4915 33.63 62.6649 33.4307 62.7689 33.24C62.8729 33.0493 62.9249 32.8457 62.9249 32.629C62.9249 32.291 62.8209 32.0267 62.6129 31.836C62.4049 31.6367 62.1319 31.537 61.7939 31.537ZM73.9511 40.091C73.7864 40.091 73.6564 40.0433 73.5611 39.948C73.4658 39.844 73.4181 39.7053 73.4181 39.532V31.758H70.4931C70.3371 31.758 70.2158 31.7147 70.1291 31.628C70.0424 31.5413 69.9991 31.4287 69.9991 31.29C69.9991 31.1427 70.0424 31.03 70.1291 30.952C70.2158 30.874 70.3371 30.835 70.4931 30.835H77.4221C77.5781 30.835 77.6994 30.874 77.7861 30.952C77.8728 31.03 77.9161 31.1427 77.9161 31.29C77.9161 31.4373 77.8728 31.5543 77.7861 31.641C77.6994 31.719 77.5781 31.758 77.4221 31.758H74.4971V39.532C74.4971 39.7053 74.4494 39.844 74.3541 39.948C74.2674 40.0433 74.1331 40.091 73.9511 40.091ZM78.3892 40.091C78.2158 40.091 78.0815 40.0433 77.9862 39.948C77.8995 39.8527 77.8562 39.7183 77.8562 39.545V34.124C77.8562 33.9507 77.8995 33.8207 77.9862 33.734C78.0728 33.6387 78.1985 33.591 78.3632 33.591C78.5278 33.591 78.6535 33.6387 78.7402 33.734C78.8355 33.8207 78.8832 33.9507 78.8832 34.124V35.177H78.7532C78.8918 34.6657 79.1562 34.2713 79.5462 33.994C79.9362 33.7167 80.4172 33.5693 80.9892 33.552C81.1192 33.5433 81.2232 33.5737 81.3012 33.643C81.3792 33.7037 81.4225 33.812 81.4312 33.968C81.4398 34.1153 81.4052 34.2323 81.3272 34.319C81.2492 34.4057 81.1278 34.4577 80.9632 34.475L80.7552 34.501C80.1658 34.553 79.7108 34.7437 79.3902 35.073C79.0782 35.3937 78.9222 35.8357 78.9222 36.399V39.545C78.9222 39.7183 78.8745 39.8527 78.7792 39.948C78.6925 40.0433 78.5625 40.091 78.3892 40.091ZM84.4409 40.117C84.0075 40.117 83.6175 40.0347 83.2709 39.87C82.9329 39.6967 82.6642 39.4627 82.4649 39.168C82.2655 38.8733 82.1659 38.544 82.1659 38.18C82.1659 37.712 82.2829 37.3437 82.5169 37.075C82.7595 36.8063 83.1539 36.6157 83.6999 36.503C84.2545 36.3903 85.0085 36.334 85.9619 36.334H86.5469V37.023H85.9749C85.2729 37.023 84.7182 37.0577 84.3109 37.127C83.9122 37.1877 83.6305 37.296 83.4659 37.452C83.3099 37.608 83.2319 37.829 83.2319 38.115C83.2319 38.4703 83.3532 38.7607 83.5959 38.986C83.8472 39.2113 84.1852 39.324 84.6099 39.324C84.9565 39.324 85.2599 39.2417 85.5199 39.077C85.7885 38.9123 85.9965 38.687 86.1439 38.401C86.2999 38.115 86.3779 37.7857 86.3779 37.413V35.931C86.3779 35.3937 86.2695 35.008 86.0529 34.774C85.8362 34.5313 85.4809 34.41 84.9869 34.41C84.6835 34.41 84.3802 34.449 84.0769 34.527C83.7735 34.605 83.4529 34.7307 83.1149 34.904C82.9935 34.9647 82.8895 34.9863 82.8029 34.969C82.7162 34.943 82.6469 34.8953 82.5949 34.826C82.5429 34.7567 82.5125 34.6787 82.5039 34.592C82.4952 34.4967 82.5125 34.4057 82.5559 34.319C82.6079 34.2323 82.6859 34.163 82.7899 34.111C83.1712 33.9203 83.5482 33.7817 83.9209 33.695C84.2935 33.6083 84.6489 33.565 84.9869 33.565C85.5329 33.565 85.9835 33.656 86.3389 33.838C86.6942 34.0113 86.9585 34.28 87.1319 34.644C87.3052 34.9993 87.3919 35.4587 87.3919 36.022V39.545C87.3919 39.7183 87.3485 39.8527 87.2619 39.948C87.1839 40.0433 87.0669 40.091 86.9109 40.091C86.7462 40.091 86.6205 40.0433 86.5339 39.948C86.4472 39.8527 86.4039 39.7183 86.4039 39.545V38.531H86.5209C86.4515 38.8603 86.3172 39.142 86.1179 39.376C85.9272 39.61 85.6889 39.792 85.4029 39.922C85.1169 40.052 84.7962 40.117 84.4409 40.117ZM89.8654 40.091C89.6921 40.091 89.5621 40.0433 89.4754 39.948C89.3888 39.8527 89.3454 39.7183 89.3454 39.545V34.124C89.3454 33.9507 89.3888 33.8207 89.4754 33.734C89.5621 33.6387 89.6878 33.591 89.8524 33.591C90.0171 33.591 90.1428 33.6387 90.2294 33.734C90.3248 33.8207 90.3724 33.9507 90.3724 34.124V35.242L90.2294 35.086C90.4114 34.5833 90.7061 34.2063 91.1134 33.955C91.5294 33.695 92.0061 33.565 92.5434 33.565C93.0461 33.565 93.4621 33.656 93.7914 33.838C94.1294 34.02 94.3808 34.2973 94.5454 34.67C94.7101 35.034 94.7924 35.4977 94.7924 36.061V39.545C94.7924 39.7183 94.7448 39.8527 94.6494 39.948C94.5628 40.0433 94.4371 40.091 94.2724 40.091C94.0991 40.091 93.9648 40.0433 93.8694 39.948C93.7828 39.8527 93.7394 39.7183 93.7394 39.545V36.126C93.7394 35.5367 93.6224 35.1077 93.3884 34.839C93.1631 34.5617 92.7991 34.423 92.2964 34.423C91.7158 34.423 91.2521 34.605 90.9054 34.969C90.5674 35.3243 90.3984 35.801 90.3984 36.399V39.545C90.3984 39.909 90.2208 40.091 89.8654 40.091ZM98.8661 40.117C98.4761 40.117 98.0818 40.0693 97.6831 39.974C97.2931 39.8787 96.9291 39.714 96.5911 39.48C96.5044 39.4193 96.4438 39.35 96.4091 39.272C96.3744 39.1853 96.3614 39.103 96.3701 39.025C96.3874 38.9383 96.4221 38.8647 96.4741 38.804C96.5348 38.7433 96.6041 38.7087 96.6821 38.7C96.7688 38.6827 96.8641 38.7 96.9681 38.752C97.3061 38.96 97.6311 39.1073 97.9431 39.194C98.2638 39.272 98.5801 39.311 98.8921 39.311C99.3861 39.311 99.7588 39.22 100.01 39.038C100.261 38.856 100.387 38.609 100.387 38.297C100.387 38.0543 100.305 37.8637 100.14 37.725C99.9754 37.5777 99.7154 37.465 99.3601 37.387L98.1771 37.127C97.6311 37.0143 97.2238 36.8193 96.9551 36.542C96.6951 36.2647 96.5651 35.905 96.5651 35.463C96.5651 35.073 96.6648 34.7393 96.8641 34.462C97.0721 34.176 97.3624 33.955 97.7351 33.799C98.1078 33.643 98.5411 33.565 99.0351 33.565C99.4164 33.565 99.7761 33.617 100.114 33.721C100.461 33.8163 100.773 33.9723 101.05 34.189C101.137 34.2497 101.193 34.3233 101.219 34.41C101.254 34.488 101.258 34.5703 101.232 34.657C101.215 34.735 101.176 34.8043 101.115 34.865C101.054 34.917 100.981 34.9473 100.894 34.956C100.807 34.9647 100.716 34.9387 100.621 34.878C100.361 34.7047 100.097 34.579 99.8281 34.501C99.5594 34.4143 99.2951 34.371 99.0351 34.371C98.5498 34.371 98.1814 34.4663 97.9301 34.657C97.6788 34.8477 97.5531 35.099 97.5531 35.411C97.5531 35.6537 97.6311 35.853 97.7871 36.009C97.9431 36.165 98.1858 36.2777 98.5151 36.347L99.6981 36.594C100.261 36.7153 100.682 36.9103 100.959 37.179C101.245 37.439 101.388 37.7943 101.388 38.245C101.388 38.817 101.158 39.272 100.699 39.61C100.24 39.948 99.6288 40.117 98.8661 40.117ZM104.917 40.117C104.293 40.117 103.816 39.9263 103.487 39.545C103.158 39.1637 102.993 38.6177 102.993 37.907V31.277C102.993 31.1037 103.036 30.9737 103.123 30.887C103.21 30.7917 103.34 30.744 103.513 30.744C103.678 30.744 103.808 30.7917 103.903 30.887C103.998 30.9737 104.046 31.1037 104.046 31.277V37.829C104.046 38.297 104.137 38.648 104.319 38.882C104.51 39.1073 104.787 39.22 105.151 39.22C105.229 39.22 105.298 39.2157 105.359 39.207C105.42 39.1983 105.48 39.194 105.541 39.194C105.636 39.1853 105.701 39.207 105.736 39.259C105.779 39.311 105.801 39.415 105.801 39.571C105.801 39.727 105.766 39.844 105.697 39.922C105.628 40 105.515 40.052 105.359 40.078C105.29 40.0867 105.216 40.0953 105.138 40.104C105.06 40.1127 104.986 40.117 104.917 40.117ZM108.829 40.117C108.395 40.117 108.005 40.0347 107.659 39.87C107.321 39.6967 107.052 39.4627 106.853 39.168C106.653 38.8733 106.554 38.544 106.554 38.18C106.554 37.712 106.671 37.3437 106.905 37.075C107.147 36.8063 107.542 36.6157 108.088 36.503C108.642 36.3903 109.396 36.334 110.35 36.334H110.935V37.023H110.363C109.661 37.023 109.106 37.0577 108.699 37.127C108.3 37.1877 108.018 37.296 107.854 37.452C107.698 37.608 107.62 37.829 107.62 38.115C107.62 38.4703 107.741 38.7607 107.984 38.986C108.235 39.2113 108.573 39.324 108.998 39.324C109.344 39.324 109.648 39.2417 109.908 39.077C110.176 38.9123 110.384 38.687 110.532 38.401C110.688 38.115 110.766 37.7857 110.766 37.413V35.931C110.766 35.3937 110.657 35.008 110.441 34.774C110.224 34.5313 109.869 34.41 109.375 34.41C109.071 34.41 108.768 34.449 108.465 34.527C108.161 34.605 107.841 34.7307 107.503 34.904C107.381 34.9647 107.277 34.9863 107.191 34.969C107.104 34.943 107.035 34.8953 106.983 34.826C106.931 34.7567 106.9 34.6787 106.892 34.592C106.883 34.4967 106.9 34.4057 106.944 34.319C106.996 34.2323 107.074 34.163 107.178 34.111C107.559 33.9203 107.936 33.7817 108.309 33.695C108.681 33.6083 109.037 33.565 109.375 33.565C109.921 33.565 110.371 33.656 110.727 33.838C111.082 34.0113 111.346 34.28 111.52 34.644C111.693 34.9993 111.78 35.4587 111.78 36.022V39.545C111.78 39.7183 111.736 39.8527 111.65 39.948C111.572 40.0433 111.455 40.091 111.299 40.091C111.134 40.091 111.008 40.0433 110.922 39.948C110.835 39.8527 110.792 39.7183 110.792 39.545V38.531H110.909C110.839 38.8603 110.705 39.142 110.506 39.376C110.315 39.61 110.077 39.792 109.791 39.922C109.505 40.052 109.184 40.117 108.829 40.117ZM116.268 40.117C115.774 40.117 115.358 40.0303 115.02 39.857C114.691 39.675 114.444 39.415 114.279 39.077C114.114 38.7303 114.032 38.31 114.032 37.816V34.501H113.161C113.014 34.501 112.901 34.4663 112.823 34.397C112.745 34.319 112.706 34.215 112.706 34.085C112.706 33.955 112.745 33.8553 112.823 33.786C112.901 33.7167 113.014 33.682 113.161 33.682H114.032V32.187C114.032 32.0137 114.08 31.8837 114.175 31.797C114.27 31.7017 114.4 31.654 114.565 31.654C114.73 31.654 114.855 31.7017 114.942 31.797C115.037 31.8837 115.085 32.0137 115.085 32.187V33.682H116.723C116.87 33.682 116.983 33.7167 117.061 33.786C117.139 33.8553 117.178 33.955 117.178 34.085C117.178 34.215 117.139 34.319 117.061 34.397C116.983 34.4663 116.87 34.501 116.723 34.501H115.085V37.712C115.085 38.206 115.189 38.583 115.397 38.843C115.605 39.0943 115.943 39.22 116.411 39.22C116.576 39.22 116.714 39.2027 116.827 39.168C116.948 39.1333 117.048 39.116 117.126 39.116C117.204 39.1073 117.269 39.1333 117.321 39.194C117.373 39.2547 117.399 39.3587 117.399 39.506C117.399 39.61 117.377 39.7053 117.334 39.792C117.299 39.8787 117.234 39.9393 117.139 39.974C117.035 40.0087 116.896 40.039 116.723 40.065C116.558 40.0997 116.407 40.117 116.268 40.117ZM118.874 40.065C118.701 40.065 118.571 40.0173 118.484 39.922C118.398 39.818 118.354 39.675 118.354 39.493V34.176C118.354 33.994 118.398 33.8553 118.484 33.76C118.571 33.6647 118.701 33.617 118.874 33.617C119.039 33.617 119.169 33.6647 119.264 33.76C119.36 33.8553 119.407 33.994 119.407 34.176V39.493C119.407 39.675 119.36 39.818 119.264 39.922C119.178 40.0173 119.048 40.065 118.874 40.065ZM118.874 32.161C118.658 32.161 118.489 32.1047 118.367 31.992C118.246 31.8707 118.185 31.7103 118.185 31.511C118.185 31.303 118.246 31.147 118.367 31.043C118.489 30.9303 118.658 30.874 118.874 30.874C119.1 30.874 119.269 30.9303 119.381 31.043C119.503 31.147 119.563 31.303 119.563 31.511C119.563 31.7103 119.503 31.8707 119.381 31.992C119.269 32.1047 119.1 32.161 118.874 32.161ZM124.002 40.117C123.386 40.117 122.853 39.9827 122.403 39.714C121.952 39.4453 121.601 39.0683 121.35 38.583C121.107 38.089 120.986 37.5083 120.986 36.841C120.986 36.3383 121.055 35.8877 121.194 35.489C121.332 35.0817 121.536 34.735 121.805 34.449C122.073 34.163 122.39 33.9463 122.754 33.799C123.126 33.643 123.542 33.565 124.002 33.565C124.617 33.565 125.15 33.6993 125.601 33.968C126.051 34.2367 126.398 34.618 126.641 35.112C126.892 35.5973 127.018 36.1737 127.018 36.841C127.018 37.3437 126.948 37.7943 126.81 38.193C126.671 38.5917 126.467 38.9383 126.199 39.233C125.93 39.519 125.609 39.74 125.237 39.896C124.873 40.0433 124.461 40.117 124.002 40.117ZM124.002 39.272C124.392 39.272 124.734 39.1767 125.029 38.986C125.323 38.7953 125.549 38.518 125.705 38.154C125.869 37.79 125.952 37.3523 125.952 36.841C125.952 36.0523 125.774 35.45 125.419 35.034C125.072 34.618 124.6 34.41 124.002 34.41C123.603 34.41 123.256 34.5053 122.962 34.696C122.676 34.878 122.45 35.151 122.286 35.515C122.13 35.8703 122.052 36.3123 122.052 36.841C122.052 37.621 122.229 38.2233 122.585 38.648C122.94 39.064 123.412 39.272 124.002 39.272ZM129.119 40.091C128.946 40.091 128.816 40.0433 128.729 39.948C128.643 39.8527 128.599 39.7183 128.599 39.545V34.124C128.599 33.9507 128.643 33.8207 128.729 33.734C128.816 33.6387 128.942 33.591 129.106 33.591C129.271 33.591 129.397 33.6387 129.483 33.734C129.579 33.8207 129.626 33.9507 129.626 34.124V35.242L129.483 35.086C129.665 34.5833 129.96 34.2063 130.367 33.955C130.783 33.695 131.26 33.565 131.797 33.565C132.3 33.565 132.716 33.656 133.045 33.838C133.383 34.02 133.635 34.2973 133.799 34.67C133.964 35.034 134.046 35.4977 134.046 36.061V39.545C134.046 39.7183 133.999 39.8527 133.903 39.948C133.817 40.0433 133.691 40.091 133.526 40.091C133.353 40.091 133.219 40.0433 133.123 39.948C133.037 39.8527 132.993 39.7183 132.993 39.545V36.126C132.993 35.5367 132.876 35.1077 132.642 34.839C132.417 34.5617 132.053 34.423 131.55 34.423C130.97 34.423 130.506 34.605 130.159 34.969C129.821 35.3243 129.652 35.801 129.652 36.399V39.545C129.652 39.909 129.475 40.091 129.119 40.091Z" fill="#4B4B4B"/>
</svg>
