<svg width="87" height="26" viewBox="0 0 87 26" fill="none" xmlns="http://www.w3.org/2000/svg">
<rect width="87" height="26" rx="13" fill="#E6E6E6"/>
<path fill-rule="evenodd" clip-rule="evenodd" d="M26.6437 10.7232C26.9204 11 26.9204 11.4485 26.6437 11.7247L22.8216 15.5471C22.9383 15.8045 22.9985 16.0839 22.9982 16.3666C22.9982 17.4689 22.1019 18.365 20.9999 18.365C19.8983 18.365 19.0017 17.4689 19.0017 16.3666C19.0017 15.265 19.8983 14.3682 20.9999 14.3682C21.2826 14.3681 21.5622 14.4284 21.8198 14.5451L25.6417 10.7232C25.9184 10.4465 26.3669 10.4465 26.6437 10.7232ZM20.9999 9.80222C21.7789 9.80222 22.541 9.93722 23.2642 10.2029C23.6315 10.338 24.0389 10.1497 24.1739 9.78239C24.3084 9.41513 24.1204 9.00825 23.7531 8.87321C22.8725 8.54968 21.9461 8.38533 20.9999 8.38533C16.599 8.38533 13.0186 11.9657 13.0186 16.3666C13.0186 16.758 13.336 17.0751 13.727 17.0751C14.1184 17.0751 14.4355 16.758 14.4355 16.3666C14.4355 12.7473 17.3804 9.80222 20.9999 9.80222ZM30.4265 18.6499C30.6063 17.9066 30.6971 17.1384 30.6971 16.3666C30.6971 11.02 26.3469 6.66933 20.9999 6.66933C15.6531 6.66933 11.3029 11.02 11.3029 16.3666C11.3029 17.1384 11.3939 17.9066 11.5737 18.6499C11.672 19.0573 12.0197 19.3307 12.4384 19.3307H29.5619C29.9805 19.3307 30.3283 19.0573 30.4265 18.6499ZM28.8589 8.508C26.7597 6.40857 23.9686 5.25244 20.9999 5.25244C18.0313 5.25244 15.2405 6.40852 13.1413 8.508C11.0421 10.6072 9.88574 13.3981 9.88574 16.3666C9.88574 17.2505 9.99018 18.1306 10.1961 18.983C10.4472 20.0218 11.3692 20.7476 12.4384 20.7476H29.5618C30.0795 20.7487 30.5825 20.575 30.9893 20.2548C31.3961 19.9346 31.683 19.4865 31.8035 18.983C32.01 18.1262 32.1142 17.2479 32.114 16.3666C32.114 13.3981 30.9579 10.6073 28.8589 8.508Z" fill="#1B9ADE"/>
<path d="M43.0781 19V9.46094H43.0391L40.0938 11.4922V9.83594L43.0625 7.72656H44.7891V19H43.0781ZM48.1328 19.1172C47.5547 19.1172 47.1016 18.6641 47.1016 18.0938C47.1016 17.5156 47.5547 17.0703 48.1328 17.0703C48.7031 17.0703 49.1562 17.5156 49.1562 18.0938C49.1562 18.6641 48.7031 19.1172 48.1328 19.1172ZM54.8281 19.1875C52.1328 19.1875 50.5234 16.9453 50.5234 13.3672V13.3516C50.5234 9.77344 52.1328 7.53906 54.8281 7.53906C57.5156 7.53906 59.1328 9.77344 59.1328 13.3516V13.3672C59.1328 16.9453 57.5156 19.1875 54.8281 19.1875ZM54.8281 17.7266C56.4297 17.7266 57.3672 16.0703 57.3672 13.3672V13.3516C57.3672 10.6484 56.4297 9.00781 54.8281 9.00781C53.2188 9.00781 52.2891 10.6484 52.2891 13.3516V13.3672C52.2891 16.0703 53.2188 17.7266 54.8281 17.7266ZM64.8125 19.1875C62.1172 19.1875 60.5078 16.9453 60.5078 13.3672V13.3516C60.5078 9.77344 62.1172 7.53906 64.8125 7.53906C67.5 7.53906 69.1172 9.77344 69.1172 13.3516V13.3672C69.1172 16.9453 67.5 19.1875 64.8125 19.1875ZM64.8125 17.7266C66.4141 17.7266 67.3516 16.0703 67.3516 13.3672V13.3516C67.3516 10.6484 66.4141 9.00781 64.8125 9.00781C63.2031 9.00781 62.2734 10.6484 62.2734 13.3516V13.3672C62.2734 16.0703 63.2031 17.7266 64.8125 17.7266ZM70.0234 19L72.7422 14.8984L70.0625 10.7812H71.9609L73.75 13.7578H73.7891L75.5547 10.7812H77.4219L74.7188 14.8438L77.3906 19H75.5312L73.7109 15.9766H73.6719L71.8516 19H70.0234Z" fill="black"/>
</svg>
