<svg width="53" height="53" viewBox="0 0 53 53" fill="none" xmlns="http://www.w3.org/2000/svg">
<path d="M26.4998 48.1668H39.4998C40.6491 48.1668 41.7513 47.7103 42.564 46.8976C43.3766 46.085 43.8332 44.9828 43.8332 43.8335V15.6668L32.9998 4.8335H13.4998C12.3506 4.8335 11.2484 5.29004 10.4357 6.1027C9.62305 6.91536 9.1665 8.01756 9.1665 9.16683V30.8335" stroke="#979797" stroke-width="5" stroke-linecap="round" stroke-linejoin="round"/>
<path d="M30.8332 4.8335V13.5002C30.8332 14.6494 31.2897 15.7516 32.1024 16.5643C32.915 17.377 34.0172 17.8335 35.1665 17.8335H43.8332M23.0332 27.8002C23.8951 26.9382 25.0642 26.454 26.2832 26.454C27.5022 26.454 28.6712 26.9382 29.5332 27.8002C30.3951 28.6621 30.8794 29.8312 30.8794 31.0502C30.8794 32.2692 30.3951 33.4382 29.5332 34.3002L17.8332 46.0002L9.1665 48.1668L11.3332 39.5002L23.0332 27.8002Z" stroke="#979797" stroke-width="5" stroke-linecap="round" stroke-linejoin="round"/>
</svg>
