<svg width="32" height="31" viewBox="0 0 32 31" fill="none" xmlns="http://www.w3.org/2000/svg">
<path d="M26.9062 26.1562H5.59375C4.82296 26.1562 4.08375 25.8501 3.53872 25.305C2.99369 24.76 2.6875 24.0208 2.6875 23.25V7.75C2.6875 6.97921 2.99369 6.24 3.53872 5.69497C4.08375 5.14994 4.82296 4.84375 5.59375 4.84375H26.9062C27.677 4.84375 28.4163 5.14994 28.9613 5.69497C29.5063 6.24 29.8125 6.97921 29.8125 7.75V23.25C29.8125 24.0208 29.5063 24.76 28.9613 25.305C28.4163 25.8501 27.677 26.1562 26.9062 26.1562ZM5.59375 6.78125C5.33682 6.78125 5.09042 6.88331 4.90874 7.06499C4.72706 7.24667 4.625 7.49307 4.625 7.75V23.25C4.625 23.5069 4.72706 23.7533 4.90874 23.935C5.09042 24.1167 5.33682 24.2188 5.59375 24.2188H26.9062C27.1632 24.2188 27.4096 24.1167 27.5913 23.935C27.7729 23.7533 27.875 23.5069 27.875 23.25V7.75C27.875 7.49307 27.7729 7.24667 27.5913 7.06499C27.4096 6.88331 27.1632 6.78125 26.9062 6.78125H5.59375ZM12.375 15.5C12.375 15.2431 12.2729 14.9967 12.0913 14.815C11.9096 14.6333 11.6632 14.5312 11.4062 14.5312H8.5C8.24307 14.5312 7.99667 14.6333 7.81499 14.815C7.63331 14.9967 7.53125 15.2431 7.53125 15.5C7.53125 15.7569 7.63331 16.0033 7.81499 16.185C7.99667 16.3667 8.24307 16.4688 8.5 16.4688H11.4062C11.6632 16.4688 11.9096 16.3667 12.0913 16.185C12.2729 16.0033 12.375 15.7569 12.375 15.5ZM24.9688 15.5C24.9688 15.2431 24.8667 14.9967 24.685 14.815C24.5033 14.6333 24.2569 14.5312 24 14.5312H16.25C15.9931 14.5312 15.7467 14.6333 15.565 14.815C15.3833 14.9967 15.2812 15.2431 15.2812 15.5C15.2812 15.7569 15.3833 16.0033 15.565 16.185C15.7467 16.3667 15.9931 16.4688 16.25 16.4688H24C24.2569 16.4688 24.5033 16.3667 24.685 16.185C24.8667 16.0033 24.9688 15.7569 24.9688 15.5ZM24.9688 20.3438C24.9688 20.0868 24.8667 19.8404 24.685 19.6587C24.5033 19.4771 24.2569 19.375 24 19.375H21.0938C20.8368 19.375 20.5904 19.4771 20.4087 19.6587C20.2271 19.8404 20.125 20.0868 20.125 20.3438C20.125 20.6007 20.2271 20.8471 20.4087 21.0288C20.5904 21.2104 20.8368 21.3125 21.0938 21.3125H24C24.2569 21.3125 24.5033 21.2104 24.685 21.0288C24.8667 20.8471 24.9688 20.6007 24.9688 20.3438ZM17.2188 20.3438C17.2188 20.0868 17.1167 19.8404 16.935 19.6587C16.7533 19.4771 16.5069 19.375 16.25 19.375H8.5C8.24307 19.375 7.99667 19.4771 7.81499 19.6587C7.63331 19.8404 7.53125 20.0868 7.53125 20.3438C7.53125 20.6007 7.63331 20.8471 7.81499 21.0288C7.99667 21.2104 8.24307 21.3125 8.5 21.3125H16.25C16.5069 21.3125 16.7533 21.2104 16.935 21.0288C17.1167 20.8471 17.2188 20.6007 17.2188 20.3438Z" fill="white"/>
</svg>
