<svg width="61" height="61" viewBox="0 0 61 61" fill="none" xmlns="http://www.w3.org/2000/svg">
<path d="M27.9639 44.7358C28.2261 44.9971 28.4341 45.3075 28.5761 45.6494C28.718 45.9913 28.7911 46.3578 28.7911 46.728C28.7911 47.0981 28.718 47.4646 28.5761 47.8065C28.4341 48.1484 28.2261 48.4589 27.9639 48.7201L26.7639 49.9201C25.4901 51.1987 23.9754 52.2121 22.3075 52.9016C20.6396 53.5911 18.8515 53.9431 17.0467 53.9373C14.3287 53.9382 11.6716 53.1329 9.41138 51.6233C7.15119 50.1137 5.38954 47.9676 4.3493 45.4566C3.30906 42.9455 3.03697 40.1824 3.56746 37.5167C4.09795 34.851 5.40718 32.4025 7.32951 30.4811L15.474 22.3366C17.2064 20.6045 19.3702 19.3669 21.7415 18.7519C24.1128 18.137 26.6053 18.167 28.9611 18.8389C31.3169 19.5107 33.4503 20.8001 35.1404 22.5734C36.8306 24.3467 38.016 26.5395 38.574 28.9248C38.6665 29.2875 38.6856 29.665 38.6302 30.0351C38.5749 30.4053 38.4462 30.7607 38.2518 31.0805C38.0574 31.4003 37.8011 31.6781 37.4979 31.8975C37.1947 32.117 36.8508 32.2738 36.4863 32.3586C36.1218 32.4435 35.744 32.4547 35.375 32.3917C35.0061 32.3287 34.6535 32.1926 34.3378 31.9916C34.0221 31.7905 33.7497 31.5285 33.5366 31.2208C33.3235 30.9132 33.1739 30.566 33.0967 30.1998C32.7656 28.7918 32.0644 27.4977 31.0656 26.4514C30.0668 25.4051 28.8067 24.6446 27.4156 24.2484C26.0244 23.8522 24.5527 23.8348 23.1526 24.1979C21.7524 24.5611 20.4747 25.2916 19.4514 26.3139L11.3069 34.4584C10.1716 35.5928 9.39817 37.0384 9.08447 38.6123C8.77078 40.1862 8.93088 41.8178 9.54453 43.3008C10.1582 44.7837 11.1978 46.0514 12.5319 46.9434C13.8661 47.8355 15.4348 48.3119 17.0397 48.3123C18.106 48.3155 19.1624 48.107 20.1477 47.6991C21.1329 47.2911 22.0275 46.6918 22.7795 45.9358L23.9772 44.7358C24.2385 44.4732 24.5491 44.2649 24.8912 44.1227C25.2333 43.9806 25.6001 43.9074 25.9705 43.9074C26.341 43.9074 26.7078 43.9806 27.0498 44.1227C27.3919 44.2649 27.7026 44.4732 27.9639 44.7358ZM53.6631 11.0866C51.0853 8.50964 47.5897 7.06201 43.9447 7.06201C40.2998 7.06201 36.8041 8.50964 34.2264 11.0866L33.0287 12.2842C32.5004 12.8126 32.2035 13.5292 32.2035 14.2764C32.2035 15.0236 32.5004 15.7402 33.0287 16.2686C33.5571 16.7969 34.2737 17.0938 35.0209 17.0938C35.7681 17.0938 36.4847 16.7969 37.0131 16.2686L38.2131 15.0686C39.736 13.5457 41.8016 12.6901 43.9553 12.6901C46.109 12.6901 48.1746 13.5457 49.6975 15.0686C51.2204 16.5915 52.076 18.657 52.076 20.8108C52.076 22.9645 51.2204 25.03 49.6975 26.553L41.5389 34.6858C40.7869 35.4418 39.8923 36.0411 38.9071 36.4491C37.9218 36.857 36.8654 37.0655 35.799 37.0623C33.9697 37.061 32.1945 36.4418 30.7613 35.3051C29.328 34.1684 28.3208 32.5808 27.9029 30.7998C27.7339 30.0732 27.2831 29.4435 26.6497 29.0492C26.0163 28.6549 25.2523 28.5284 24.5256 28.6975C23.799 28.8666 23.1692 29.3174 22.775 29.9508C22.3807 30.5841 22.2542 31.3482 22.4233 32.0748C23.129 35.0909 24.8329 37.7802 27.2586 39.7065C29.6844 41.6328 32.6898 42.6832 35.7873 42.6873H35.799C37.6047 42.6923 39.3934 42.3392 41.0617 41.6484C42.7301 40.9577 44.2449 39.943 45.5186 38.6631L53.6631 30.5186C54.9392 29.2428 55.9515 27.728 56.6421 26.061C57.3327 24.3939 57.6882 22.6071 57.6882 20.8026C57.6882 18.9981 57.3327 17.2113 56.6421 15.5442C55.9515 13.8771 54.9392 12.3624 53.6631 11.0866Z" fill="#979797"/>
</svg>
