<svg width="42" height="39" viewBox="0 0 42 39" fill="none" xmlns="http://www.w3.org/2000/svg">
<rect x="0.5" width="41" height="39" rx="4" fill="#2C2C2C"/>
<g clip-path="url(#clip0_3202_7126)">
<path d="M20.4992 27.4489H20.4933C19.8295 27.4444 13.9609 27.3908 12.2982 26.9412C11.1362 26.6288 10.219 25.7125 9.90572 24.5504C9.47066 22.917 9.49837 19.7724 9.50138 19.5213C9.49854 19.2714 9.47049 16.1007 9.90443 14.454C9.90486 14.4525 9.90524 14.4508 9.90572 14.4493C10.2154 13.3004 11.1534 12.3557 12.2954 12.0425C12.2982 12.0417 12.3012 12.041 12.3041 12.0402C13.948 11.6082 19.8281 11.5553 20.4933 11.5508H20.5052C21.1707 11.5553 27.055 11.6089 28.7024 12.0592C29.8614 12.3707 30.778 13.2858 31.092 14.4465C31.5434 16.0944 31.5016 19.2719 31.497 19.5401C31.5002 19.8043 31.5266 22.9207 31.094 24.5622C31.0937 24.564 31.0932 24.5655 31.0928 24.567C30.7795 25.7291 29.8624 26.6454 28.699 26.9581C28.6975 26.9586 28.6958 26.9589 28.6943 26.9595C27.0506 27.3913 21.1703 27.4441 20.5052 27.4489H20.4992H20.4992ZM11.5657 14.8948C11.1837 16.3483 11.2198 19.4785 11.2201 19.5101V19.5327C11.2087 20.4008 11.2488 22.9148 11.5659 24.1056C11.7196 24.6758 12.172 25.1274 12.7457 25.2816C13.9725 25.6135 18.7523 25.7179 20.4992 25.7301C22.2507 25.7179 27.0375 25.6163 28.2552 25.2978C28.8271 25.143 29.2779 24.6929 29.4327 24.122C29.7501 22.9138 29.7899 20.4121 29.7783 19.5495C29.7783 19.5405 29.7783 19.5314 29.7785 19.5223C29.7942 18.6438 29.7632 16.1004 29.4342 14.9002C29.4338 14.899 29.4335 14.8978 29.4333 14.8966C29.279 14.3239 28.8264 13.8723 28.2527 13.718C27.0378 13.3858 22.2503 13.2818 20.4992 13.2695C18.7489 13.2818 13.9668 13.3832 12.7453 13.7014C12.1826 13.8575 11.72 14.3253 11.5657 14.8948ZM18.3086 22.9801V16.0194L24.3243 19.4998L18.3086 22.9801Z" fill="white"/>
</g>
<defs>
<clipPath id="clip0_3202_7126">
<rect width="22" height="22" fill="white" transform="translate(9.5 8.5)"/>
</clipPath>
</defs>
</svg>
