<svg width="41" height="30" viewBox="0 0 41 30" fill="none" xmlns="http://www.w3.org/2000/svg">
<path d="M20.4985 29.8138H20.4876C19.2504 29.8054 8.31348 29.7056 5.21486 28.8676C3.04931 28.2854 1.33988 26.5779 0.756108 24.4121C-0.0546826 21.368 -0.00303226 15.5077 0.00257321 15.0396C-0.00271195 14.5739 -0.0550029 8.66502 0.753706 5.59603C0.754507 5.59322 0.755228 5.5901 0.756108 5.5873C1.33323 3.44617 3.08126 1.68565 5.20957 1.10196C5.21486 1.10036 5.22046 1.09916 5.22583 1.09764C8.28946 0.292531 19.2479 0.193955 20.4876 0.185547H20.5098C21.75 0.193955 32.7161 0.293813 35.7863 1.13303C37.9462 1.7136 39.6544 3.41902 40.2397 5.58209C41.0808 8.65317 41.0029 14.5749 40.9945 15.0748C41.0004 15.5671 41.0495 21.3749 40.2434 24.4342C40.2428 24.4374 40.2418 24.4402 40.2412 24.443C39.6572 26.6088 37.9481 28.3164 35.78 28.8992C35.7772 28.9001 35.774 28.9008 35.7712 28.9017C32.7079 29.7065 21.7491 29.805 20.5098 29.8138H20.4986H20.4985ZM3.84977 6.41755C3.13787 9.12643 3.20514 14.96 3.2057 15.0187V15.061C3.18448 16.6788 3.25919 21.364 3.85009 23.5831C4.13661 24.6457 4.97967 25.4874 6.04879 25.7748C8.33502 26.3933 17.2429 26.5879 20.4985 26.6107C23.7626 26.5879 32.6836 26.3986 34.9529 25.8049C36.0187 25.5165 36.8588 24.6776 37.1473 23.6137C37.7387 21.3621 37.8129 16.6997 37.7914 15.0922C37.7914 15.0754 37.7914 15.0585 37.7917 15.0416C37.8211 13.4044 37.7632 8.66446 37.1501 6.42764C37.1494 6.42546 37.1489 6.42324 37.1485 6.42099C36.8608 5.35371 36.0174 4.51193 34.9483 4.22445C32.6841 3.60544 23.762 3.41149 20.4985 3.38867C17.2366 3.41149 8.32445 3.60048 6.04815 4.19346C4.99937 4.48446 4.13725 5.35619 3.84977 6.41755ZM16.4161 21.4857V8.51335L27.627 14.9997L16.4161 21.4857Z" fill="black"/>
</svg>
