<svg width="55" height="54" viewBox="0 0 55 54" fill="none" xmlns="http://www.w3.org/2000/svg">
<circle cx="27.5" cy="27" r="27" fill="#1B9ADE"/>
<rect width="23" height="23" transform="translate(15.5 15)" fill="#1B9ADE"/>
<path d="M35.2049 34.3911H26.9512V35.9305H35.506C35.6842 35.9305 35.792 35.7325 35.6941 35.5836C35.4554 35.2208 35.2901 34.8172 35.2049 34.3911Z" fill="white"/>
<path d="M22.6212 37.6461C22.6212 37.7599 22.6759 37.8667 22.7682 37.9332C22.8605 37.9998 22.9792 38.0179 23.0871 37.9819L24.1125 37.6401L25.138 37.9819C25.246 38.0179 25.3646 37.9998 25.4569 37.9332C25.5492 37.8667 25.6039 37.7599 25.6039 37.6461V34.3914H22.6211V37.6461H22.6212Z" fill="white"/>
<path d="M23.2598 23.348H24.2455L23.7526 22.165L23.2598 23.348Z" fill="white"/>
<path d="M36.3825 15H20.5041C18.5407 15 16.9434 16.5974 16.9434 18.5608V33.7175C16.9434 31.754 18.5407 30.1566 20.5042 30.1566H36.3825C36.7547 30.1566 37.0564 29.8549 37.0564 29.4828V15.6738C37.0563 15.3017 36.7547 15 36.3825 15ZM25.8155 25.3655C25.4721 25.5086 25.0775 25.3462 24.9344 25.0027L24.8064 24.6956H22.6976L22.5697 25.0027C22.4266 25.3462 22.032 25.5086 21.6885 25.3655C21.345 25.2224 21.1826 24.8279 21.3257 24.4844L23.1301 20.1539C23.3568 19.6045 24.1475 19.6047 24.3741 20.1539L26.1784 24.4844C26.3215 24.8279 26.159 25.2224 25.8155 25.3655ZM28.8042 23.2521H27.3607C26.4676 23.219 26.4683 21.9373 27.3607 21.9045H28.8042C29.6973 21.9376 29.6966 23.2193 28.8042 23.2521ZM33.4955 25.4174H30.6085C30.36 25.4174 30.1317 25.2806 30.0144 25.0615C29.8972 24.8424 29.9101 24.5765 30.0479 24.3698L32.2365 21.0869H30.6085C29.7155 21.0538 29.7161 19.7721 30.6085 19.7393H33.4955C33.7441 19.7393 33.9724 19.876 34.0897 20.0951C34.2069 20.3142 34.1941 20.5801 34.0562 20.7868L31.8676 24.0697H33.4955C34.3886 24.1029 34.388 25.3845 33.4955 25.4174Z" fill="white"/>
<path d="M35.5059 31.5044H20.5405C17.5796 31.6064 17.5518 35.8068 20.5034 35.9307H21.2729V34.3913H20.5034C19.6103 34.3582 19.611 33.0765 20.5034 33.0437H35.2048C35.29 32.6176 35.4553 32.214 35.6939 31.8512C35.7919 31.7024 35.6841 31.5044 35.5059 31.5044Z" fill="white"/>
</svg>
