<svg width="54" height="54" viewBox="0 0 54 54" fill="none" xmlns="http://www.w3.org/2000/svg">
<path d="M54 27C54 41.9117 41.9117 54 27 54C12.0883 54 0 41.9117 0 27C0 12.0883 12.0883 0 27 0C41.9117 0 54 12.0883 54 27Z" fill="#1B9ADE"/>
<rect width="17" height="37" transform="translate(18.999 8.49976)" fill="#1B9ADE"/>
<path d="M22.3018 18.1199C23.9821 18.1199 25.5987 18.8431 27.1514 20.2895C27.2046 20.9169 26.9494 21.1296 26.3857 20.9276C25.5136 20.332 24.5777 20.0342 23.578 20.0342C20.9404 20.3958 19.6217 20.9914 19.6217 21.8209C20.4725 22.8845 22.2167 23.6502 24.8542 24.1181H24.9818L29.5763 22.5867H29.8315V22.8419C29.6932 24.0224 28.9275 24.8307 27.5343 25.2667C24.6415 26.5855 22.4719 27.9043 21.0255 29.2231C19.5791 31.1587 18.8559 32.7327 18.8559 33.9451C18.8559 35.902 19.9195 37.7738 22.0465 39.5605C24.2799 40.7516 26.8324 41.3472 29.7039 41.3472L37.3612 40.9643L37.4889 41.092V41.3472C33.958 43.6444 30.5972 44.793 27.4067 44.793H27.0238C23.0888 44.793 20.3661 43.1765 18.8559 39.9434C18.1753 38.1566 17.835 36.9655 17.835 36.3699C17.835 32.9454 18.7709 29.7974 20.6427 26.9258V26.7982C18.941 26.2665 18.0902 25.2029 18.0902 23.6077V23.0972C18.6645 19.779 20.0684 18.1199 22.3018 18.1199Z" fill="white"/>
<path d="M25.9397 9.52147C26.0673 9.44702 26.1046 9.56401 26.0514 9.87243C25.3282 11.5741 24.2168 12.7599 22.7172 13.4299L17.2135 16.1898C16.9795 16.1259 16.937 15.9345 17.0859 15.6155C17.8197 14.201 18.3196 13.3608 18.5854 13.0949L25.9397 9.52147Z" fill="white"/>
</svg>
