<svg width="28" height="28" viewBox="0 0 28 28" fill="none" xmlns="http://www.w3.org/2000/svg">
<path d="M18.0669 14.0005C18.0669 11.9497 16.5535 10.2594 14.5876 9.95222V4.34046C14.5876 3.81042 13.9714 3.5181 13.5598 3.85186L6.61996 9.50646H4.56252C3.2874 9.50646 2.25 10.5439 2.25 11.819V16.1822C2.25 17.4573 3.2874 18.4947 4.56252 18.4947H6.61996L13.5598 24.1491C13.9691 24.4823 14.5876 24.1927 14.5876 23.6605V18.0487C16.5535 17.7415 18.0669 16.0512 18.0669 14.0005ZM6.21424 17.2345H4.56252C4.28347 17.2342 4.01593 17.1232 3.8186 16.9259C3.62128 16.7285 3.5103 16.461 3.51 16.1819V11.8187C3.5103 11.5396 3.62128 11.2721 3.8186 11.0748C4.01593 10.8775 4.28347 10.7665 4.56252 10.7662H6.21424V17.2345ZM13.3276 22.3344L7.47424 17.5651V10.4358L13.3276 5.66654V22.3344ZM16.8069 14.0005C16.8069 15.3548 15.8555 16.4869 14.5876 16.7764V11.2245C15.8555 11.5141 16.8069 12.6461 16.8069 14.0005ZM19.9544 3.84962C19.2401 3.42346 18.5933 4.5079 19.3121 4.93322C22.5072 6.8277 24.4921 10.3025 24.4921 14.0019C24.4921 17.6995 22.5088 21.1729 19.3163 23.068C18.6054 23.4902 19.239 24.5791 19.9594 24.1516C23.5322 22.0306 25.7521 18.1417 25.7521 14.0019C25.7521 9.85982 23.5306 5.9695 19.9544 3.84962Z" fill="#1C2C3A"/>
<path d="M21.9088 14.0003C21.9088 11.0242 20.2604 8.31911 17.6066 6.94123C16.8727 6.55651 16.2844 7.67427 17.0258 8.05927C19.2605 9.21987 20.6488 11.4963 20.6488 14.0003C20.6488 16.5043 19.2605 18.7807 17.0258 19.9413C16.2799 20.3286 16.8772 21.4402 17.6066 21.0594C20.2604 19.6815 21.9088 16.9764 21.9088 14.0003Z" fill="#1C2C3A"/>
</svg>
