<svg width="40" height="40" viewBox="0 0 40 40" fill="none" xmlns="http://www.w3.org/2000/svg">
<rect x="0.5" y="0.5" width="39" height="39" rx="19.5" stroke="#E8E7E3"/>
<path d="M28.4375 10.8125H24.9219V10.1094C24.9219 8.94627 23.9756 8 22.8125 8H17.1875C16.0244 8 15.0781 8.94627 15.0781 10.1094V10.8125H11.5625C10.3994 10.8125 9.45312 11.7588 9.45312 12.9219C9.45312 13.856 10.0637 14.6497 10.9065 14.9263L12.1606 30.0658C12.251 31.1504 13.1743 32 14.2627 32H25.7373C26.8258 32 27.7491 31.1504 27.8395 30.0654L29.0935 14.9262C29.9363 14.6497 30.5469 13.856 30.5469 12.9219C30.5469 11.7588 29.6006 10.8125 28.4375 10.8125ZM16.4844 10.1094C16.4844 9.72167 16.7998 9.40625 17.1875 9.40625H22.8125C23.2002 9.40625 23.5156 9.72167 23.5156 10.1094V10.8125H16.4844V10.1094ZM26.438 29.949C26.4079 30.3105 26.1001 30.5938 25.7373 30.5938H14.2627C13.8999 30.5938 13.5921 30.3105 13.5621 29.9494L12.3263 15.0312H27.6737L26.438 29.949ZM28.4375 13.625H11.5625C11.1748 13.625 10.8594 13.3096 10.8594 12.9219C10.8594 12.5342 11.1748 12.2188 11.5625 12.2188H28.4375C28.8252 12.2188 29.1406 12.5342 29.1406 12.9219C29.1406 13.3096 28.8252 13.625 28.4375 13.625Z" fill="#5A6168"/>
<path d="M17.1862 28.4409L16.4831 17.0971C16.459 16.7095 16.1235 16.4147 15.7378 16.4389C15.3502 16.4629 15.0555 16.7966 15.0795 17.1841L15.7826 28.5279C15.8057 28.9007 16.1153 29.1876 16.4837 29.1876C16.8909 29.1876 17.2112 28.8446 17.1862 28.4409ZM20.0001 16.4376C19.6117 16.4376 19.2969 16.7524 19.2969 17.1407V28.4844C19.2969 28.8728 19.6117 29.1876 20.0001 29.1876C20.3884 29.1876 20.7032 28.8728 20.7032 28.4844V17.1407C20.7032 16.7524 20.3884 16.4376 20.0001 16.4376ZM24.2623 16.4389C23.8755 16.4149 23.541 16.7096 23.517 17.0972L22.8139 28.4409C22.7899 28.8285 23.0846 29.1622 23.4722 29.1862C23.86 29.2102 24.1934 28.9154 24.2174 28.5279L24.9206 17.1842C24.9446 16.7966 24.6499 16.4629 24.2623 16.4389Z" fill="#5A6168"/>
</svg>
