<svg width="24" height="24" viewBox="0 0 24 24" fill="none" xmlns="http://www.w3.org/2000/svg">
<path d="M12 24C18.6274 24 24 18.6274 24 12C24 5.37258 18.6274 0 12 0C5.37258 0 0 5.37258 0 12C0 18.6274 5.37258 24 12 24Z" fill="#2196F3"/>
<path d="M12 7.95581C12.8284 7.95581 13.5 7.28424 13.5 6.45581C13.5 5.62738 12.8284 4.95581 12 4.95581C11.1716 4.95581 10.5 5.62738 10.5 6.45581C10.5 7.28424 11.1716 7.95581 12 7.95581Z" fill="white"/>
<path d="M12.0001 19.0558C11.6818 19.0558 11.3766 18.9294 11.1516 18.7043C10.9265 18.4793 10.8001 18.1741 10.8001 17.8558V11.8558C10.4818 11.8558 10.1766 11.7294 9.95157 11.5043C9.72653 11.2793 9.6001 10.9741 9.6001 10.6558C9.6001 10.3376 9.72653 10.0323 9.95157 9.80728C10.1766 9.58224 10.4818 9.45581 10.8001 9.45581H12.0001C12.3184 9.45581 12.6236 9.58224 12.8486 9.80728C13.0737 10.0323 13.2001 10.3376 13.2001 10.6558V17.8558C13.2001 18.1741 13.0737 18.4793 12.8486 18.7043C12.6236 18.9294 12.3184 19.0558 12.0001 19.0558Z" fill="white"/>
<path d="M13.2001 19.0558H10.8001C10.4818 19.0558 10.1766 18.9293 9.95157 18.7043C9.72653 18.4792 9.6001 18.174 9.6001 17.8558C9.6001 17.5375 9.72653 17.2323 9.95157 17.0072C10.1766 16.7822 10.4818 16.6558 10.8001 16.6558H13.2001C13.5184 16.6558 13.8236 16.7822 14.0486 17.0072C14.2737 17.2323 14.4001 17.5375 14.4001 17.8558C14.4001 18.174 14.2737 18.4792 14.0486 18.7043C13.8236 18.9293 13.5184 19.0558 13.2001 19.0558Z" fill="white"/>
</svg>
