<svg width="40" height="41" viewBox="0 0 40 41" fill="none" xmlns="http://www.w3.org/2000/svg">
<rect x="0.5" y="1" width="39" height="39" rx="19.5" stroke="#E8E7E3"/>
<path d="M25.721 28.52C25.9343 28.8667 26.0143 29.18 25.961 29.46C25.9077 29.7533 25.7743 29.9933 25.561 30.18C25.3477 30.38 25.0877 30.5067 24.781 30.56C24.4877 30.6133 24.1877 30.58 23.881 30.46C23.5877 30.3533 23.3343 30.14 23.121 29.82L21.701 27.5C21.5277 27.2333 21.301 27.0333 21.021 26.9C20.7543 26.78 20.4077 26.72 19.981 26.72L22.341 25.82C22.9543 25.82 23.4543 25.9267 23.841 26.14C24.241 26.3533 24.601 26.72 24.921 27.24L25.721 28.52ZM20.001 26.72C18.6143 26.72 17.3943 26.42 16.341 25.82C15.301 25.2067 14.4877 24.3533 13.901 23.26C13.3277 22.1667 13.041 20.8933 13.041 19.44C13.041 18.3333 13.201 17.34 13.521 16.46C13.8543 15.5667 14.3277 14.8067 14.941 14.18C15.5543 13.54 16.2877 13.0467 17.141 12.7C18.0077 12.3533 18.961 12.18 20.001 12.18C21.4143 12.18 22.641 12.48 23.681 13.08C24.721 13.68 25.5277 14.5267 26.101 15.62C26.6877 16.7 26.981 17.9667 26.981 19.42C26.981 20.5267 26.8143 21.5267 26.481 22.42C26.1477 23.3133 25.6743 24.08 25.061 24.72C24.4477 25.36 23.7143 25.8533 22.861 26.2C22.0077 26.5467 21.0543 26.72 20.001 26.72ZM20.001 24.08C20.7877 24.08 21.4543 23.9 22.001 23.54C22.561 23.1667 22.9877 22.6333 23.281 21.94C23.5877 21.2333 23.741 20.4 23.741 19.44C23.741 17.9733 23.4143 16.84 22.761 16.04C22.1077 15.2267 21.1877 14.82 20.001 14.82C19.2277 14.82 18.561 15 18.001 15.36C17.441 15.72 17.0143 16.2467 16.721 16.94C16.4277 17.6333 16.281 18.4667 16.281 19.44C16.281 20.8933 16.6077 22.0333 17.261 22.86C17.9143 23.6733 18.8277 24.08 20.001 24.08Z" fill="#58CC02"/>
</svg>
