<svg width="40" height="40" viewBox="0 0 40 40" fill="none" xmlns="http://www.w3.org/2000/svg">
<rect x="0.5" y="0.5" width="39" height="39" rx="19.5" stroke="#E8E7E3"/>
<path d="M27.4937 24.8632L24.091 24.4852C23.9433 24.4687 23.7939 24.4856 23.6537 24.5346C23.5134 24.5837 23.3861 24.6637 23.281 24.7687L23.2802 24.7702C23.1635 24.887 23.0808 25.0334 23.041 25.1936C23.0012 25.3539 23.0058 25.5219 23.0543 25.6797C23.1028 25.8376 23.1934 25.9792 23.3163 26.0894C23.4392 26.1997 23.5898 26.2744 23.752 26.3055L24.4697 26.4457C23.1565 27.3679 21.5894 27.8597 19.9847 27.8535C18.7845 27.8529 17.6004 27.5768 16.5236 27.0465C15.4469 26.5162 14.5062 25.7458 13.7741 24.7947C13.0419 23.8436 12.5379 22.7372 12.3007 21.5606C12.0635 20.384 12.0995 19.1687 12.406 18.0082C12.4809 17.7203 12.4386 17.4144 12.2886 17.1575C12.1385 16.9007 11.8928 16.7137 11.6052 16.6375C11.3176 16.5614 11.0116 16.6022 10.754 16.7511C10.4965 16.9001 10.3084 17.145 10.231 17.4322C9.68443 19.4812 9.79838 21.6504 10.5566 23.6308C11.3148 25.6113 12.6786 27.302 14.4537 28.4621C16.2288 29.6222 18.3247 30.1927 20.443 30.0921C22.5612 29.9916 24.5937 29.2253 26.251 27.9022L26.47 29.0242C26.5011 29.1864 26.5758 29.337 26.686 29.4599C26.7962 29.5828 26.9379 29.6734 27.0957 29.7219C27.2535 29.7704 27.4216 29.775 27.5818 29.7352C27.7421 29.6954 27.8884 29.6127 28.0052 29.496L28.0067 29.4945C28.1119 29.3895 28.192 29.2621 28.2412 29.1219C28.2904 28.9817 28.3074 28.8322 28.291 28.6845L27.9122 25.2825C27.9004 25.1753 27.8525 25.0752 27.7763 24.9989C27.7001 24.9226 27.6002 24.8744 27.493 24.8625L27.4937 24.8632ZM20.0162 9.89697C17.739 9.90465 15.531 10.6802 13.7492 12.0982L13.5302 10.9762C13.4991 10.8141 13.4244 10.6635 13.3142 10.5405C13.2039 10.4176 13.0623 10.3271 12.9045 10.2786C12.7467 10.2301 12.5786 10.2255 12.4184 10.2653C12.2581 10.3051 12.1118 10.3878 11.995 10.5045L11.9942 10.506C11.8889 10.6109 11.8087 10.7382 11.7593 10.8785C11.71 11.0187 11.6929 11.1682 11.7092 11.316L12.088 14.718C12.0997 14.8252 12.1477 14.9252 12.2239 15.0016C12.3001 15.0779 12.4 15.126 12.5072 15.138L15.91 15.5152C16.0576 15.5318 16.2071 15.5149 16.3473 15.4658C16.4875 15.4167 16.6149 15.3367 16.72 15.2317L16.7207 15.2302C16.8374 15.1134 16.9201 14.9671 16.9599 14.8068C16.9997 14.6466 16.9951 14.4785 16.9466 14.3207C16.8981 14.1629 16.8076 14.0212 16.6846 13.911C16.5617 13.8008 16.4111 13.7261 16.249 13.695L15.5305 13.5547C16.8439 12.6324 18.4113 12.1406 20.0162 12.147C21.2164 12.1477 22.4004 12.4239 23.4771 12.9542C24.5537 13.4846 25.4943 14.255 26.2263 15.206C26.9584 16.1571 27.4624 17.2635 27.6995 18.44C27.9367 19.6166 27.9007 20.8318 27.5942 21.9922C27.5178 22.2806 27.5592 22.5876 27.7091 22.8456C27.859 23.1035 28.1053 23.2913 28.3937 23.3677C28.488 23.3925 28.585 23.4051 28.6825 23.4052C28.9307 23.4052 29.1719 23.3231 29.3686 23.1717C29.5653 23.0204 29.7064 22.8082 29.77 22.5682C30.1645 21.0747 30.2109 19.5105 29.9057 17.9962C29.6005 16.4819 28.9518 15.0578 28.0095 13.8337C27.0672 12.6096 25.8566 11.6181 24.4708 10.9356C23.085 10.2531 21.561 9.89774 20.0162 9.89697Z" fill="#5A6168"/>
</svg>
