<svg width="44" height="44" viewBox="0 0 44 44" fill="none" xmlns="http://www.w3.org/2000/svg">
<rect x="0.5" y="0.5" width="43" height="43" rx="7.5" stroke="#EBEBEB"/>
<path d="M21.5 31C26.7467 31 31 26.7467 31 21.5C31 16.2533 26.7467 12 21.5 12C16.2533 12 12 16.2533 12 21.5C12 26.7467 16.2533 31 21.5 31Z" stroke="#0C0E11" stroke-width="1.5" stroke-linecap="round" stroke-linejoin="round"/>
<path d="M31.4697 32.5303C31.7626 32.8232 32.2374 32.8232 32.5303 32.5303C32.8232 32.2374 32.8232 31.7626 32.5303 31.4697L31.4697 32.5303ZM29.5303 28.4697L29 27.9393L27.9393 29L28.4697 29.5303L29.5303 28.4697ZM32 32L32.5303 31.4697L29.5303 28.4697L29 29L28.4697 29.5303L31.4697 32.5303L32 32Z" fill="#0C0E11"/>
</svg>
