<svg width="44" height="44" viewBox="0 0 44 44" fill="none" xmlns="http://www.w3.org/2000/svg">
<rect x="0.5" y="0.5" width="43" height="43" rx="7.5" stroke="#EBEBEB"/>
<path d="M22 25C23.6569 25 25 23.6569 25 22C25 20.3431 23.6569 19 22 19C20.3431 19 19 20.3431 19 22C19 23.6569 20.3431 25 22 25Z" stroke="#0C0E11" stroke-width="1.5" stroke-miterlimit="10" stroke-linecap="round" stroke-linejoin="round"/>
<path d="M12 22.8799V21.1199C12 20.0799 12.85 19.2199 13.9 19.2199C15.71 19.2199 16.45 17.9399 15.54 16.3699C15.02 15.4699 15.33 14.2999 16.24 13.7799L17.97 12.7899C18.76 12.3199 19.78 12.5999 20.25 13.3899L20.36 13.5799C21.26 15.1499 22.74 15.1499 23.65 13.5799L23.76 13.3899C24.23 12.5999 25.25 12.3199 26.04 12.7899L27.77 13.7799C28.68 14.2999 28.99 15.4699 28.47 16.3699C27.56 17.9399 28.3 19.2199 30.11 19.2199C31.15 19.2199 32.01 20.0699 32.01 21.1199V22.8799C32.01 23.9199 31.16 24.7799 30.11 24.7799C28.3 24.7799 27.56 26.0599 28.47 27.6299C28.99 28.5399 28.68 29.6999 27.77 30.2199L26.04 31.2099C25.25 31.6799 24.23 31.3999 23.76 30.6099L23.65 30.4199C22.75 28.8499 21.27 28.8499 20.36 30.4199L20.25 30.6099C19.78 31.3999 18.76 31.6799 17.97 31.2099L16.24 30.2199C15.33 29.6999 15.02 28.5299 15.54 27.6299C16.45 26.0599 15.71 24.7799 13.9 24.7799C12.85 24.7799 12 23.9199 12 22.8799Z" stroke="#0C0E11" stroke-width="1.5" stroke-miterlimit="10" stroke-linecap="round" stroke-linejoin="round"/>
</svg>
