<svg width="25" height="24" viewBox="0 0 25 24" fill="none" xmlns="http://www.w3.org/2000/svg">
<path d="M12.995 2.15009L21.995 5.75006C22.345 5.89006 22.625 6.31006 22.625 6.68006V10.0001C22.625 10.5501 22.175 11.0001 21.625 11.0001H3.625C3.075 11.0001 2.625 10.5501 2.625 10.0001V6.68006C2.625 6.31006 2.905 5.89006 3.255 5.75006L12.255 2.15009C12.455 2.07009 12.795 2.07009 12.995 2.15009Z" stroke="#202730" stroke-width="1.5" stroke-miterlimit="10" stroke-linecap="round" stroke-linejoin="round"/>
<path d="M22.625 22H2.625V19C2.625 18.45 3.075 18 3.625 18H21.625C22.175 18 22.625 18.45 22.625 19V22Z" stroke="#202730" stroke-width="1.5" stroke-miterlimit="10" stroke-linecap="round" stroke-linejoin="round"/>
<path d="M4.625 18V11" stroke="#202730" stroke-width="1.5" stroke-miterlimit="10" stroke-linecap="round" stroke-linejoin="round"/>
<path d="M8.625 18V11" stroke="#202730" stroke-width="1.5" stroke-miterlimit="10" stroke-linecap="round" stroke-linejoin="round"/>
<path d="M12.625 18V11" stroke="#202730" stroke-width="1.5" stroke-miterlimit="10" stroke-linecap="round" stroke-linejoin="round"/>
<path d="M16.625 18V11" stroke="#202730" stroke-width="1.5" stroke-miterlimit="10" stroke-linecap="round" stroke-linejoin="round"/>
<path d="M20.625 18V11" stroke="#202730" stroke-width="1.5" stroke-miterlimit="10" stroke-linecap="round" stroke-linejoin="round"/>
<path d="M1.625 22H23.625" stroke="#202730" stroke-width="1.5" stroke-miterlimit="10" stroke-linecap="round" stroke-linejoin="round"/>
<path d="M12.625 8.5C13.4534 8.5 14.125 7.82843 14.125 7C14.125 6.17157 13.4534 5.5 12.625 5.5C11.7966 5.5 11.125 6.17157 11.125 7C11.125 7.82843 11.7966 8.5 12.625 8.5Z" stroke="#202730" stroke-width="1.5" stroke-miterlimit="10" stroke-linecap="round" stroke-linejoin="round"/>
</svg>
