<svg width="25" height="24" viewBox="0 0 25 24" fill="none" xmlns="http://www.w3.org/2000/svg">
<path d="M12.2749 16.5V18.6" stroke="#979797" stroke-width="1.5" stroke-linecap="round" stroke-linejoin="round"/>
<path d="M7.2749 22H17.2749V21C17.2749 19.9 16.3749 19 15.2749 19H9.2749C8.1749 19 7.2749 19.9 7.2749 21V22V22Z" stroke="#979797" stroke-width="1.5" stroke-miterlimit="10"/>
<path d="M6.2749 22H18.2749" stroke="#979797" stroke-width="1.5" stroke-linecap="round" stroke-linejoin="round"/>
<path d="M12.125 16C8.255 16 5.125 12.87 5.125 9V6C5.125 3.79 6.915 2 9.125 2H15.125C17.335 2 19.125 3.79 19.125 6V9C19.125 12.87 15.995 16 12.125 16Z" stroke="#979797" stroke-width="1.5" stroke-linecap="round" stroke-linejoin="round"/>
<path d="M5.59504 11.6501C4.84504 11.4101 4.18504 10.9701 3.66504 10.4501C2.76504 9.4501 2.16504 8.2501 2.16504 6.8501C2.16504 5.4501 3.26504 4.3501 4.66504 4.3501H5.31504C5.11504 4.8101 5.01504 5.3201 5.01504 5.8501V8.8501C5.01504 9.8501 5.22504 10.7901 5.59504 11.6501Z" stroke="#979797" stroke-width="1.5" stroke-linecap="round" stroke-linejoin="round"/>
<path d="M18.6548 11.6501C19.4048 11.4101 20.0648 10.9701 20.5848 10.4501C21.4848 9.4501 22.0848 8.2501 22.0848 6.8501C22.0848 5.4501 20.9848 4.3501 19.5848 4.3501H18.9348C19.1348 4.8101 19.2348 5.3201 19.2348 5.8501V8.8501C19.2348 9.8501 19.0248 10.7901 18.6548 11.6501Z" stroke="#979797" stroke-width="1.5" stroke-linecap="round" stroke-linejoin="round"/>
</svg>
