<svg width="25" height="24" viewBox="0 0 25 24" fill="none" xmlns="http://www.w3.org/2000/svg">
<path d="M12.5351 10.87C12.4351 10.86 12.3151 10.86 12.2051 10.87C9.82506 10.79 7.93506 8.84 7.93506 6.44C7.93506 3.99 9.91506 2 12.3751 2C14.8251 2 16.8151 3.99 16.8151 6.44C16.8051 8.84 14.9151 10.79 12.5351 10.87Z" stroke="#979797" stroke-width="1.5" stroke-linecap="round" stroke-linejoin="round"/>
<path d="M7.53521 14.56C5.11521 16.18 5.11521 18.82 7.53521 20.43C10.2852 22.27 14.7952 22.27 17.5452 20.43C19.9652 18.81 19.9652 16.17 17.5452 14.56C14.8052 12.73 10.2952 12.73 7.53521 14.56Z" stroke="#979797" stroke-width="1.5" stroke-linecap="round" stroke-linejoin="round"/>
</svg>
