<svg width="25" height="24" viewBox="0 0 25 24" fill="none" xmlns="http://www.w3.org/2000/svg">
<path d="M7.60322 22.5435H6.09699C4.43335 22.5435 3.08447 21.1948 3.08447 19.531C3.08447 17.8672 4.43335 16.5186 6.09699 16.5186H22.6658M12.122 22.5435H22.6658" stroke="#979797" stroke-width="1.2" stroke-miterlimit="10" stroke-linecap="round" stroke-linejoin="round"/>
<path d="M6.09717 19.5311H20.6649M21.9128 22.5436C21.9128 22.5436 21.9128 22.5434 21.9124 22.5431C21.5168 22.1476 21.2031 21.678 20.989 21.1612C20.775 20.6444 20.6648 20.0905 20.6649 19.5311C20.6648 18.9717 20.775 18.4178 20.989 17.9009C21.2031 17.3841 21.5168 16.9146 21.9124 16.519C21.9128 16.5187 21.9128 16.5186 21.9128 16.5186M7.6034 19.5311V23.2967L9.86278 22.5436L12.1222 23.2967V19.5311H7.6034Z" stroke="#979797" stroke-width="1.2" stroke-miterlimit="10" stroke-linecap="round" stroke-linejoin="round"/>
<path d="M22.6658 0.703125H6.09699C5.70137 0.7031 5.30963 0.781005 4.94412 0.932389C4.57861 1.08377 4.24651 1.30567 3.96676 1.58542C3.68702 1.86516 3.46512 2.19727 3.31374 2.56277C3.16235 2.92828 3.08445 3.32002 3.08447 3.71564V19.5313V19.5305C3.0845 19.135 3.16242 18.7434 3.3138 18.378C3.46519 18.0126 3.68706 17.6805 3.96675 17.4009C4.24636 17.1212 4.57834 16.8993 4.94371 16.748C5.30909 16.5966 5.70071 16.5187 6.09619 16.5187H22.6657V0.703125H22.6658Z" stroke="#979797" stroke-width="1.2" stroke-miterlimit="10" stroke-linecap="round" stroke-linejoin="round"/>
<path d="M7.60303 10.8703L9.48586 6.35156L11.3687 10.8703M7.91671 10.1172H11.055M13.2515 8.61094H14.7577M16.6405 6.35156H19.653L16.6405 10.8703H19.653" stroke="#979797" stroke-width="1.2" stroke-miterlimit="10" stroke-linecap="round" stroke-linejoin="round"/>
</svg>
